<?xml version="1.0" encoding="UTF-8"?>
<svg id="r17" width="100%" xmlns="http://www.w3.org/2000/svg" class="flowchart" style="max-width: 1009.28515625px;" viewBox="0 0 1009.28515625 831.609375" role="graphics-document document" aria-roledescription="flowchart-v2"><rect width="100%" height="100%" fill="#ffffff"/><style>#r17{font-family:Helvetica,Arial,sans-serif;font-size:16px;fill:#000000;}#r17 .error-icon{fill:#552222;}#r17 .error-text{fill:#552222;stroke:#552222;}#r17 .edge-thickness-normal{stroke-width:1px;}#r17 .edge-thickness-thick{stroke-width:3.5px;}#r17 .edge-pattern-solid{stroke-dasharray:0;}#r17 .edge-thickness-invisible{stroke-width:0;fill:none;}#r17 .edge-pattern-dashed{stroke-dasharray:3;}#r17 .edge-pattern-dotted{stroke-dasharray:2;}#r17 .marker{fill:#666;stroke:#666;}#r17 .marker.cross{stroke:#666;}#r17 svg{font-family:Helvetica,Arial,sans-serif;font-size:16px;}#r17 p{margin:0;}#r17 .label{font-family:Helvetica,Arial,sans-serif;color:#000000;}#r17 .cluster-label text{fill:#333;}#r17 .cluster-label span{color:#333;}#r17 .cluster-label span p{background-color:transparent;}#r17 .label text,#r17 span{fill:#000000;color:#000000;}#r17 .node rect,#r17 .node circle,#r17 .node ellipse,#r17 .node polygon,#r17 .node path{fill:#eee;stroke:#999;stroke-width:1px;}#r17 .rough-node .label text,#r17 .node .label text,#r17 .image-shape .label,#r17 .icon-shape .label{text-anchor:middle;}#r17 .node .katex path{fill:#000;stroke:#000;stroke-width:1px;}#r17 .rough-node .label,#r17 .node .label,#r17 .image-shape .label,#r17 .icon-shape .label{text-align:center;}#r17 .node.clickable{cursor:pointer;}#r17 .root .anchor path{fill:#666!important;stroke-width:0;stroke:#666;}#r17 .arrowheadPath{fill:#333333;}#r17 .edgePath .path{stroke:#666;stroke-width:2.0px;}#r17 .flowchart-link{stroke:#666;fill:none;}#r17 .edgeLabel{background-color:white;text-align:center;}#r17 .edgeLabel p{background-color:white;}#r17 .edgeLabel rect{opacity:0.5;background-color:white;fill:white;}#r17 .labelBkg{background-color:rgba(255, 255, 255, 0.5);}#r17 .cluster rect{fill:hsl(0, 0%, 98.9215686275%);stroke:#707070;stroke-width:1px;}#r17 .cluster text{fill:#333;}#r17 .cluster span{color:#333;}#r17 div.mermaidTooltip{position:absolute;text-align:center;max-width:200px;padding:2px;font-family:Helvetica,Arial,sans-serif;font-size:12px;background:hsl(-160, 0%, 93.3333333333%);border:1px solid #707070;border-radius:2px;pointer-events:none;z-index:100;}#r17 .flowchartTitleText{text-anchor:middle;font-size:18px;fill:#000000;}#r17 rect.text{fill:none;stroke-width:0;}#r17 .icon-shape,#r17 .image-shape{background-color:white;text-align:center;}#r17 .icon-shape p,#r17 .image-shape p{background-color:white;padding:2px;}#r17 .icon-shape rect,#r17 .image-shape rect{opacity:0.5;background-color:white;fill:white;}#r17 :root{--mermaid-font-family:Helvetica,Arial,sans-serif;}</style><g><marker id="r17_flowchart-v2-pointEnd" class="marker flowchart-v2" viewBox="0 0 10 10" refX="5" refY="5" markerUnits="userSpaceOnUse" markerWidth="8" markerHeight="8" orient="auto"><path d="M 0 0 L 10 5 L 0 10 z" class="arrowMarkerPath" style="stroke-width: 1; stroke-dasharray: 1, 0;"></path></marker><marker id="r17_flowchart-v2-pointStart" class="marker flowchart-v2" viewBox="0 0 10 10" refX="4.5" refY="5" markerUnits="userSpaceOnUse" markerWidth="8" markerHeight="8" orient="auto"><path d="M 0 5 L 10 10 L 10 0 z" class="arrowMarkerPath" style="stroke-width: 1; stroke-dasharray: 1, 0;"></path></marker><marker id="r17_flowchart-v2-circleEnd" class="marker flowchart-v2" viewBox="0 0 10 10" refX="11" refY="5" markerUnits="userSpaceOnUse" markerWidth="11" markerHeight="11" orient="auto"><circle cx="5" cy="5" r="5" class="arrowMarkerPath" style="stroke-width: 1; stroke-dasharray: 1, 0;"></circle></marker><marker id="r17_flowchart-v2-circleStart" class="marker flowchart-v2" viewBox="0 0 10 10" refX="-1" refY="5" markerUnits="userSpaceOnUse" markerWidth="11" markerHeight="11" orient="auto"><circle cx="5" cy="5" r="5" class="arrowMarkerPath" style="stroke-width: 1; stroke-dasharray: 1, 0;"></circle></marker><marker id="r17_flowchart-v2-crossEnd" class="marker cross flowchart-v2" viewBox="0 0 11 11" refX="12" refY="5.2" markerUnits="userSpaceOnUse" markerWidth="11" markerHeight="11" orient="auto"><path d="M 1,1 l 9,9 M 10,1 l -9,9" class="arrowMarkerPath" style="stroke-width: 2; stroke-dasharray: 1, 0;"></path></marker><marker id="r17_flowchart-v2-crossStart" class="marker cross flowchart-v2" viewBox="0 0 11 11" refX="-1" refY="5.2" markerUnits="userSpaceOnUse" markerWidth="11" markerHeight="11" orient="auto"><path d="M 1,1 l 9,9 M 10,1 l -9,9" class="arrowMarkerPath" style="stroke-width: 2; stroke-dasharray: 1, 0;"></path></marker><g class="root"><g class="clusters"></g><g class="edgePaths"><path d="M517.479,81.71L466.636,90.592C415.794,99.473,314.11,117.237,263.268,129.618C212.426,142,212.426,149,212.426,152.5L212.426,156" id="L_lista_caso_0" class=" edge-thickness-normal edge-pattern-solid edge-thickness-normal edge-pattern-solid flowchart-link" style="" marker-end="url(#r17_flowchart-v2-pointEnd)"></path><path d="M212.426,238L212.426,242.167C212.426,246.333,212.426,254.667,212.496,262.417C212.566,270.167,212.707,277.334,212.777,280.917L212.847,284.501" id="L_caso_d_1" class=" edge-thickness-normal edge-pattern-solid edge-thickness-normal edge-pattern-solid flowchart-link" style="" marker-end="url(#r17_flowchart-v2-pointEnd)"></path><path d="M212.926,407.406L212.842,413.365C212.759,419.323,212.592,431.24,212.509,442.573C212.426,453.906,212.426,464.656,212.426,470.031L212.426,475.406" id="L_d_rec_2" class=" edge-thickness-normal edge-pattern-solid edge-thickness-normal edge-pattern-solid flowchart-link" style="" marker-end="url(#r17_flowchart-v2-pointEnd)"></path><path d="M186.481,533.406L180.676,539.448C174.87,545.49,163.259,557.573,157.454,576.632C151.648,595.69,151.648,621.724,151.648,634.741L151.648,647.758" id="L_rec_novo_3" class=" edge-thickness-normal edge-pattern-solid edge-thickness-normal edge-pattern-solid flowchart-link" style="" marker-end="url(#r17_flowchart-v2-pointEnd)"></path><path d="M294.034,533.406L312.295,539.448C330.556,545.49,367.078,557.573,402.582,582.802C438.086,608.032,472.572,646.407,489.816,665.595L507.059,684.783" id="L_rec_e_4" class=" edge-thickness-normal edge-pattern-solid edge-thickness-normal edge-pattern-solid flowchart-link" style="" marker-end="url(#r17_flowchart-v2-pointEnd)"></path><path d="M555.113,687.758L570.507,668.074C585.901,648.391,616.69,609.023,632.084,578.798C647.479,548.573,647.479,527.49,647.479,506.406C647.479,485.323,647.479,464.24,647.479,437.747C647.479,411.255,647.479,379.354,647.479,349.328C647.479,319.302,647.479,291.151,647.479,266.409C647.479,241.667,647.479,220.333,647.479,199C647.479,177.667,647.479,156.333,647.479,142.167C647.479,128,647.479,121,647.479,117.5L647.479,114" id="L_e_lista_5" class=" edge-thickness-normal edge-pattern-solid edge-thickness-normal edge-pattern-solid flowchart-link" style="" marker-end="url(#r17_flowchart-v2-pointEnd)"></path><path d="M263.643,356.689L347.714,371.1C431.784,385.511,599.924,414.334,683.994,434.12C768.064,453.906,768.064,464.656,768.064,470.031L768.064,475.406" id="L_d_ren_6" class=" edge-thickness-normal edge-pattern-solid edge-thickness-normal edge-pattern-solid flowchart-link" style="" marker-end="url(#r17_flowchart-v2-pointEnd)"></path><path d="M768.064,533.406L768.064,539.448C768.064,545.49,768.064,557.573,775.391,572.983C782.718,588.392,797.371,607.128,804.698,616.496L812.024,625.864" id="L_ren_fim_7" class=" edge-thickness-normal edge-pattern-solid edge-thickness-normal edge-pattern-solid flowchart-link" style="" marker-end="url(#r17_flowchart-v2-pointEnd)"></path><path d="M777.479,92.564L804.872,99.637C832.266,106.709,887.053,120.855,914.446,138.594C941.84,156.333,941.84,177.667,941.84,199C941.84,220.333,941.84,241.667,941.84,266.409C941.84,291.151,941.84,319.302,941.84,349.328C941.84,379.354,941.84,411.255,941.84,437.747C941.84,464.24,941.84,485.323,941.84,506.406C941.84,527.49,941.84,548.573,939.008,565.929C936.176,583.286,930.513,596.915,927.681,603.73L924.85,610.545" id="L_lista_fim_8" class=" edge-thickness-normal edge-pattern-dotted edge-thickness-normal edge-pattern-solid flowchart-link" style="" marker-end="url(#r17_flowchart-v2-pointEnd)"></path></g><g class="edgeLabels"><g><rect class="background" style="stroke: none"></rect></g><g><rect class="background" style="stroke: none"></rect></g><g><rect class="background" style="stroke: none"></rect></g><g><rect class="background" style="stroke: none"></rect></g><g class="edgeLabel"><g class="label" transform="translate(0, 0)"><text y="-10.1"><tspan class="text-outer-tspan" x="0" y="-0.1em" dy="1.1em"></tspan></text></g></g><g class="edgeLabel"><g class="label" transform="translate(0, 0)"><text y="-10.1"><tspan class="text-outer-tspan" x="0" y="-0.1em" dy="1.1em"></tspan></text></g></g><g class="edgeLabel" transform="translate(212.42578125, 443.15625)"><g class="label" transform="translate(-78.4765625, -11.25)"><g><rect class="background" style="" x="-2" y="-1" width="156.953125" height="22.5"></rect><text y="-10.1" style=""><tspan class="text-outer-tspan" x="0" y="-0.1em" dy="1.1em"><tspan font-style="normal" class="text-inner-tspan" font-weight="normal">sim,</tspan><tspan font-style="normal" class="text-inner-tspan" font-weight="normal"> com</tspan><tspan font-style="normal" class="text-inner-tspan" font-weight="normal"> fundamento</tspan></tspan></text></g></g></g><g class="edgeLabel" transform="translate(151.6484375, 569.65625)"><g class="label" transform="translate(-55.2265625, -11.25)"><g><rect class="background" style="" x="-2" y="-1" width="110.453125" height="22.5"></rect><text y="-10.1" style=""><tspan class="text-outer-tspan" x="0" y="-0.1em" dy="1.1em"><tspan font-style="normal" class="text-inner-tspan" font-weight="normal">dentro</tspan><tspan font-style="normal" class="text-inner-tspan" font-weight="normal"> de</tspan><tspan font-style="normal" class="text-inner-tspan" font-weight="normal"> T-R2</tspan></tspan></text></g></g></g><g class="edgeLabel" transform="translate(403.599609375, 569.65625)"><g class="label" transform="translate(-46.328125, -11.25)"><g><rect class="background" style="" x="-2" y="-1" width="92.65625" height="22.5"></rect><text y="-10.1" style=""><tspan class="text-outer-tspan" x="0" y="-0.1em" dy="1.1em"><tspan font-style="normal" class="text-inner-tspan" font-weight="normal">fora</tspan><tspan font-style="normal" class="text-inner-tspan" font-weight="normal"> de</tspan><tspan font-style="normal" class="text-inner-tspan" font-weight="normal"> T-R2</tspan></tspan></text></g></g></g><g class="edgeLabel"><g class="label" transform="translate(0, 0)"><text y="-10.1"><tspan class="text-outer-tspan" x="0" y="-0.1em" dy="1.1em"></tspan></text></g></g><g class="edgeLabel" transform="translate(768.064453125, 443.15625)"><g class="label" transform="translate(-45.57421875, -11.25)"><g><rect class="background" style="" x="-2" y="-1" width="91.1484375" height="22.5"></rect><text y="-10.1" style=""><tspan class="text-outer-tspan" x="0" y="-0.1em" dy="1.1em"><tspan font-style="normal" class="text-inner-tspan" font-weight="normal">não</tspan><tspan font-style="normal" class="text-inner-tspan" font-weight="normal"> recorrer</tspan></tspan></text></g></g></g><g class="edgeLabel"><g class="label" transform="translate(0, 0)"><text y="-10.1"><tspan class="text-outer-tspan" x="0" y="-0.1em" dy="1.1em"></tspan></text></g></g><g class="edgeLabel" transform="translate(941.83984375, 347.453125)"><g class="label" transform="translate(-61.4453125, -11.25)"><g><rect class="background" style="" x="-2" y="-1" width="122.890625" height="22.5"></rect><text y="-10.1" style=""><tspan class="text-outer-tspan" x="0" y="-0.1em" dy="1.1em"><tspan font-style="normal" class="text-inner-tspan" font-weight="normal">silêncio</tspan><tspan font-style="normal" class="text-inner-tspan" font-weight="normal"> até</tspan><tspan font-style="normal" class="text-inner-tspan" font-weight="normal"> T-R2</tspan></tspan></text></g></g></g></g><g class="nodes"><g class="node default  " id="flowchart-lista-505" transform="translate(647.478515625, 59)"><rect class="basic label-container" style="" x="-130" y="-51" width="260" height="102"></rect><g class="label" style="" transform="translate(-100, -36)"><rect></rect><foreignObject width="200" height="72"><div xmlns="http://www.w3.org/1999/xhtml" style="display: table; white-space: break-spaces; line-height: 1.5; max-width: 200px; text-align: center; width: 200px;"><span class="nodeLabel "><p>/autoridade/provimentos  T-16 — provimentos, dias restantes de T-R2</p></span></div></foreignObject></g></g><g class="node default  " id="flowchart-caso-506" transform="translate(212.42578125, 199)"><rect class="basic label-container" style="" x="-130" y="-39" width="260" height="78"></rect><g class="label" style="" transform="translate(-100, -24)"><rect></rect><foreignObject width="200" height="48"><div xmlns="http://www.w3.org/1999/xhtml" style="display: table; white-space: break-spaces; line-height: 1.5; max-width: 200px; text-align: center; width: 200px;"><span class="nodeLabel "><p>drawer: parecer, voto, ata, fundamento</p></span></div></foreignObject></g></g><g class="node default  " id="flowchart-d-508" transform="translate(212.42578125, 347.453125)"><polygon points="59.453125,0 118.90625,-59.453125 59.453125,-118.90625 0,-59.453125" class="label-container" transform="translate(-59.453125,59.453125)"></polygon><g class="label" style="" transform="translate(-32.453125, -12)"><rect></rect><foreignObject width="64.90625" height="24"><div xmlns="http://www.w3.org/1999/xhtml" style="display: table-cell; white-space: nowrap; line-height: 1.5; max-width: 200px; text-align: center;"><span class="nodeLabel "><p>recorrer?</p></span></div></foreignObject></g></g><g class="node default  " id="flowchart-rec-510" transform="translate(212.42578125, 506.40625)"><rect class="basic label-container" style="" x="-122.50390625" y="-27" width="245.0078125" height="54"></rect><g class="label" style="" transform="translate(-92.50390625, -12)"><rect></rect><foreignObject width="185.0078125" height="24"><div xmlns="http://www.w3.org/1999/xhtml" style="display: table-cell; white-space: nowrap; line-height: 1.5; max-width: 200px; text-align: center;"><span class="nodeLabel "><p>comando authority-appeal</p></span></div></foreignObject></g></g><g class="node default  " id="flowchart-novo-512" transform="translate(151.6484375, 714.7578125)"><rect class="basic label-container" style="" x="-143.6484375" y="-63" width="287.296875" height="126"></rect><g class="label" style="" transform="translate(-113.6484375, -48)"><rect></rect><foreignObject width="227.296875" height="96"><div xmlns="http://www.w3.org/1999/xhtml" style="display: table; white-space: break-spaces; line-height: 1.5; max-width: 200px; text-align: center; width: 200px;"><span class="nodeLabel "><p>novo caso cetran [ADMITIDO] — infração RECURSO_2A_INSTANCIA (EM_JULGAMENTO_CETRAN)</p></span></div></foreignObject></g></g><g class="node default  " id="flowchart-e-514" transform="translate(533.99609375, 714.7578125)"><rect class="basic label-container" style="" x="-188.69921875" y="-27" width="377.3984375" height="54"></rect><g class="label" style="" transform="translate(-158.69921875, -12)"><rect></rect><foreignObject width="317.3984375" height="24"><div xmlns="http://www.w3.org/1999/xhtml" style="display: table; white-space: break-spaces; line-height: 1.5; max-width: 200px; text-align: center; width: 200px;"><span class="nodeLabel "><p>AUTHORITY_APPEAL_WINDOW_CLOSED</p></span></div></foreignObject></g></g><g class="node default  " id="flowchart-ren-517" transform="translate(768.064453125, 506.40625)"><rect class="basic label-container" style="" x="-85.5859375" y="-27" width="171.171875" height="54"></rect><g class="label" style="" transform="translate(-55.5859375, -12)"><rect></rect><foreignObject width="111.171875" height="24"><div xmlns="http://www.w3.org/1999/xhtml" style="display: table-cell; white-space: nowrap; line-height: 1.5; max-width: 200px; text-align: center;"><span class="nodeLabel "><p>comando waive</p></span></div></foreignObject></g></g><g class="node default  " id="flowchart-fim-518" transform="translate(881.546875, 714.7578125)"><circle class="basic label-container" style="" r="108.8515625" cx="0" cy="0"></circle><g class="label" style="" transform="translate(-101.3515625, -36)"><rect></rect><foreignObject width="202.703125" height="72"><div xmlns="http://www.w3.org/1999/xhtml" style="display: table; white-space: break-spaces; line-height: 1.5; max-width: 200px; text-align: center; width: 200px;"><span class="nodeLabel "><p>[TRANSITADO] — infração CANCELADO_DEFINITIVO (restituição se pago)</p></span></div></foreignObject></g></g></g></g></g></svg>