<?xml version="1.0" encoding="UTF-8"?>
<svg id="r9" width="100%" xmlns="http://www.w3.org/2000/svg" class="flowchart" style="max-width: 1367.970703125px;" viewBox="0 0 1367.970703125 1416.8421630859375" role="graphics-document document" aria-roledescription="flowchart-v2"><rect width="100%" height="100%" fill="#ffffff"/><style>#r9{font-family:Helvetica,Arial,sans-serif;font-size:16px;fill:#000000;}#r9 .error-icon{fill:#552222;}#r9 .error-text{fill:#552222;stroke:#552222;}#r9 .edge-thickness-normal{stroke-width:1px;}#r9 .edge-thickness-thick{stroke-width:3.5px;}#r9 .edge-pattern-solid{stroke-dasharray:0;}#r9 .edge-thickness-invisible{stroke-width:0;fill:none;}#r9 .edge-pattern-dashed{stroke-dasharray:3;}#r9 .edge-pattern-dotted{stroke-dasharray:2;}#r9 .marker{fill:#666;stroke:#666;}#r9 .marker.cross{stroke:#666;}#r9 svg{font-family:Helvetica,Arial,sans-serif;font-size:16px;}#r9 p{margin:0;}#r9 .label{font-family:Helvetica,Arial,sans-serif;color:#000000;}#r9 .cluster-label text{fill:#333;}#r9 .cluster-label span{color:#333;}#r9 .cluster-label span p{background-color:transparent;}#r9 .label text,#r9 span{fill:#000000;color:#000000;}#r9 .node rect,#r9 .node circle,#r9 .node ellipse,#r9 .node polygon,#r9 .node path{fill:#eee;stroke:#999;stroke-width:1px;}#r9 .rough-node .label text,#r9 .node .label text,#r9 .image-shape .label,#r9 .icon-shape .label{text-anchor:middle;}#r9 .node .katex path{fill:#000;stroke:#000;stroke-width:1px;}#r9 .rough-node .label,#r9 .node .label,#r9 .image-shape .label,#r9 .icon-shape .label{text-align:center;}#r9 .node.clickable{cursor:pointer;}#r9 .root .anchor path{fill:#666!important;stroke-width:0;stroke:#666;}#r9 .arrowheadPath{fill:#333333;}#r9 .edgePath .path{stroke:#666;stroke-width:2.0px;}#r9 .flowchart-link{stroke:#666;fill:none;}#r9 .edgeLabel{background-color:white;text-align:center;}#r9 .edgeLabel p{background-color:white;}#r9 .edgeLabel rect{opacity:0.5;background-color:white;fill:white;}#r9 .labelBkg{background-color:rgba(255, 255, 255, 0.5);}#r9 .cluster rect{fill:hsl(0, 0%, 98.9215686275%);stroke:#707070;stroke-width:1px;}#r9 .cluster text{fill:#333;}#r9 .cluster span{color:#333;}#r9 div.mermaidTooltip{position:absolute;text-align:center;max-width:200px;padding:2px;font-family:Helvetica,Arial,sans-serif;font-size:12px;background:hsl(-160, 0%, 93.3333333333%);border:1px solid #707070;border-radius:2px;pointer-events:none;z-index:100;}#r9 .flowchartTitleText{text-anchor:middle;font-size:18px;fill:#000000;}#r9 rect.text{fill:none;stroke-width:0;}#r9 .icon-shape,#r9 .image-shape{background-color:white;text-align:center;}#r9 .icon-shape p,#r9 .image-shape p{background-color:white;padding:2px;}#r9 .icon-shape rect,#r9 .image-shape rect{opacity:0.5;background-color:white;fill:white;}#r9 :root{--mermaid-font-family:Helvetica,Arial,sans-serif;}</style><g><marker id="r9_flowchart-v2-pointEnd" class="marker flowchart-v2" viewBox="0 0 10 10" refX="5" refY="5" markerUnits="userSpaceOnUse" markerWidth="8" markerHeight="8" orient="auto"><path d="M 0 0 L 10 5 L 0 10 z" class="arrowMarkerPath" style="stroke-width: 1; stroke-dasharray: 1, 0;"></path></marker><marker id="r9_flowchart-v2-pointStart" class="marker flowchart-v2" viewBox="0 0 10 10" refX="4.5" refY="5" markerUnits="userSpaceOnUse" markerWidth="8" markerHeight="8" orient="auto"><path d="M 0 5 L 10 10 L 10 0 z" class="arrowMarkerPath" style="stroke-width: 1; stroke-dasharray: 1, 0;"></path></marker><marker id="r9_flowchart-v2-circleEnd" class="marker flowchart-v2" viewBox="0 0 10 10" refX="11" refY="5" markerUnits="userSpaceOnUse" markerWidth="11" markerHeight="11" orient="auto"><circle cx="5" cy="5" r="5" class="arrowMarkerPath" style="stroke-width: 1; stroke-dasharray: 1, 0;"></circle></marker><marker id="r9_flowchart-v2-circleStart" class="marker flowchart-v2" viewBox="0 0 10 10" refX="-1" refY="5" markerUnits="userSpaceOnUse" markerWidth="11" markerHeight="11" orient="auto"><circle cx="5" cy="5" r="5" class="arrowMarkerPath" style="stroke-width: 1; stroke-dasharray: 1, 0;"></circle></marker><marker id="r9_flowchart-v2-crossEnd" class="marker cross flowchart-v2" viewBox="0 0 11 11" refX="12" refY="5.2" markerUnits="userSpaceOnUse" markerWidth="11" markerHeight="11" orient="auto"><path d="M 1,1 l 9,9 M 10,1 l -9,9" class="arrowMarkerPath" style="stroke-width: 2; stroke-dasharray: 1, 0;"></path></marker><marker id="r9_flowchart-v2-crossStart" class="marker cross flowchart-v2" viewBox="0 0 11 11" refX="-1" refY="5.2" markerUnits="userSpaceOnUse" markerWidth="11" markerHeight="11" orient="auto"><path d="M 1,1 l 9,9 M 10,1 l -9,9" class="arrowMarkerPath" style="stroke-width: 2; stroke-dasharray: 1, 0;"></path></marker><g class="root"><g class="clusters"></g><g class="edgePaths"><path d="M260.68,110L255.084,116.042C249.489,122.083,238.297,134.167,232.775,145.667C227.254,157.167,227.403,168.084,227.477,173.542L227.551,179" id="L_esc_g1_0" class=" edge-thickness-normal edge-pattern-solid edge-thickness-normal edge-pattern-solid flowchart-link" style="" marker-end="url(#r9_flowchart-v2-pointEnd)"></path><path d="M210.818,419.454L209.383,428.211C207.949,436.967,205.08,454.48,211.589,468.891C218.098,483.302,233.986,494.612,241.93,500.267L249.873,505.922" id="L_g1_e1_1" class=" edge-thickness-normal edge-pattern-solid edge-thickness-normal edge-pattern-solid flowchart-link" style="" marker-end="url(#r9_flowchart-v2-pointEnd)"></path><path d="M445.02,508.242L466.26,502.201C487.499,496.159,529.978,484.076,551.218,450.889C572.457,417.702,572.457,363.411,572.457,309.121C572.457,254.831,572.457,200.54,550.667,166.208C528.876,131.876,485.296,117.503,463.505,110.316L441.715,103.129" id="L_e1_esc_2" class=" edge-thickness-normal edge-pattern-solid edge-thickness-normal edge-pattern-solid flowchart-link" style="" marker-end="url(#r9_flowchart-v2-pointEnd)"></path><path d="M310.698,353.149L348.584,372.957C386.471,392.764,462.243,432.378,508.073,457.84C553.903,483.302,569.791,494.612,577.734,500.267L585.678,505.922" id="L_g1_pub_3" class=" edge-thickness-normal edge-pattern-solid edge-thickness-normal edge-pattern-solid flowchart-link" style="" marker-end="url(#r9_flowchart-v2-pointEnd)"></path><path d="M643.721,586.242L643.721,590.409C643.721,594.576,643.721,602.909,643.721,610.576C643.721,618.242,643.721,625.242,643.721,628.742L643.721,632.242" id="L_pub_radar_4" class=" edge-thickness-normal edge-pattern-solid edge-thickness-normal edge-pattern-solid flowchart-link" style="" marker-end="url(#r9_flowchart-v2-pointEnd)"></path><path d="M513.721,713.807L473.4,722.046C433.079,730.285,352.438,746.764,312.118,758.503C271.797,770.242,271.797,777.242,271.797,780.742L271.797,784.242" id="L_radar_drill_5" class=" edge-thickness-normal edge-pattern-solid edge-thickness-normal edge-pattern-solid flowchart-link" style="" marker-end="url(#r9_flowchart-v2-pointEnd)"></path><path d="M213.89,866.242L202.742,873.751C191.593,881.259,169.297,896.276,158.224,910.709C147.152,925.142,147.304,938.992,147.38,945.917L147.456,952.842" id="L_drill_re_6" class=" edge-thickness-normal edge-pattern-solid edge-thickness-normal edge-pattern-solid flowchart-link" style="" marker-end="url(#r9_flowchart-v2-pointEnd)"></path><path d="M130.211,1217.553L128.86,1226.393C127.509,1235.233,124.807,1252.912,133.244,1269.384C141.68,1285.856,161.255,1301.119,171.042,1308.751L180.83,1316.383" id="L_re_e2_7" class=" edge-thickness-normal edge-pattern-solid edge-thickness-normal edge-pattern-solid flowchart-link" style="" marker-end="url(#r9_flowchart-v2-pointEnd)"></path><path d="M310.981,1318.842L326.854,1310.801C342.728,1302.759,374.474,1286.676,390.347,1249.426C406.221,1212.176,406.221,1153.759,406.221,1093.876C406.221,1033.992,406.221,972.642,394.778,934.812C383.335,896.982,360.449,882.673,349.005,875.518L337.562,868.363" id="L_e2_drill_8" class=" edge-thickness-normal edge-pattern-solid edge-thickness-normal edge-pattern-solid flowchart-link" style="" marker-end="url(#r9_flowchart-v2-pointEnd)"></path><path d="M212.738,1169.604L227.615,1186.435C242.492,1203.267,272.246,1236.929,305.163,1260.265C338.079,1283.6,374.158,1296.608,392.198,1303.112L410.237,1309.616" id="L_re_ok_9" class=" edge-thickness-normal edge-pattern-solid edge-thickness-normal edge-pattern-solid flowchart-link" style="" marker-end="url(#r9_flowchart-v2-pointEnd)"></path><path d="M643.721,738.242L643.721,742.409C643.721,746.576,643.721,754.909,643.721,762.576C643.721,770.242,643.721,777.242,643.721,780.742L643.721,784.242" id="L_radar_qual_10" class=" edge-thickness-normal edge-pattern-solid edge-thickness-normal edge-pattern-solid flowchart-link" style="" marker-end="url(#r9_flowchart-v2-pointEnd)"></path><path d="M643.721,866.242L643.721,873.751C643.721,881.259,643.721,896.276,643.721,923.292C643.721,950.309,643.721,989.326,643.721,1008.834L643.721,1028.342" id="L_qual_ach_11" class=" edge-thickness-normal edge-pattern-solid edge-thickness-normal edge-pattern-solid flowchart-link" style="" marker-end="url(#r9_flowchart-v2-pointEnd)"></path><path d="M773.721,706.499L837.567,715.956C901.413,725.413,1029.105,744.328,1092.951,757.285C1156.797,770.242,1156.797,777.242,1156.797,780.742L1156.797,784.242" id="L_radar_cap_12" class=" edge-thickness-normal edge-pattern-solid edge-thickness-normal edge-pattern-solid flowchart-link" style="" marker-end="url(#r9_flowchart-v2-pointEnd)"></path><path d="M1057.347,866.242L1038.201,873.751C1019.055,881.259,980.763,896.276,961.617,915.876C942.471,935.476,942.471,959.659,942.471,971.751L942.471,983.842" id="L_cap_ges_13" class=" edge-thickness-normal edge-pattern-solid edge-thickness-normal edge-pattern-solid flowchart-link" style="" marker-end="url(#r9_flowchart-v2-pointEnd)"></path><path d="M1190.75,866.242L1197.287,873.751C1203.824,881.259,1216.897,896.276,1223.434,927.292C1229.971,958.309,1229.971,1005.326,1229.971,1028.834L1229.971,1052.342" id="L_cap_prod_14" class=" edge-thickness-normal edge-pattern-solid edge-thickness-normal edge-pattern-solid flowchart-link" style="" marker-end="url(#r9_flowchart-v2-pointEnd)"></path></g><g class="edgeLabels"><g><rect class="background" style="stroke: none"></rect></g><g><rect class="background" style="stroke: none"></rect></g><g><rect class="background" style="stroke: none"></rect></g><g><rect class="background" style="stroke: none"></rect></g><g><rect class="background" style="stroke: none"></rect></g><g><rect class="background" style="stroke: none"></rect></g><g><rect class="background" style="stroke: none"></rect></g><g><rect class="background" style="stroke: none"></rect></g><g class="edgeLabel" transform="translate(227.10546875, 146.25)"><g class="label" transform="translate(-30.015625, -11.25)"><g><rect class="background" style="" x="-2" y="-1" width="60.03125" height="22.5"></rect><text y="-10.1" style=""><tspan class="text-outer-tspan" x="0" y="-0.1em" dy="1.1em"><tspan font-style="normal" class="text-inner-tspan" font-weight="normal">publicar</tspan></tspan></text></g></g></g><g class="edgeLabel" transform="translate(202.2109375, 471.9921875)"><g class="label" transform="translate(-15.34765625, -11.25)"><g><rect class="background" style="" x="-2" y="-1" width="30.6953125" height="22.5"></rect><text y="-10.1" style=""><tspan class="text-outer-tspan" x="0" y="-0.1em" dy="1.1em"><tspan font-style="normal" class="text-inner-tspan" font-weight="normal">não</tspan></tspan></text></g></g></g><g class="edgeLabel"><g class="label" transform="translate(0, 0)"><text y="-10.1"><tspan class="text-outer-tspan" x="0" y="-0.1em" dy="1.1em"></tspan></text></g></g><g class="edgeLabel" transform="translate(538.015625, 471.9921875)"><g class="label" transform="translate(-14.44140625, -11.25)"><g><rect class="background" style="" x="-2" y="-1" width="28.8828125" height="22.5"></rect><text y="-10.1" style=""><tspan class="text-outer-tspan" x="0" y="-0.1em" dy="1.1em"><tspan font-style="normal" class="text-inner-tspan" font-weight="normal">sim</tspan></tspan></text></g></g></g><g class="edgeLabel"><g class="label" transform="translate(0, 0)"><text y="-10.1"><tspan class="text-outer-tspan" x="0" y="-0.1em" dy="1.1em"></tspan></text></g></g><g class="edgeLabel"><g class="label" transform="translate(0, 0)"><text y="-10.1"><tspan class="text-outer-tspan" x="0" y="-0.1em" dy="1.1em"></tspan></text></g></g><g class="edgeLabel" transform="translate(147, 911.2921867370605)"><g class="label" transform="translate(-33.56640625, -11.25)"><g><rect class="background" style="" x="-2" y="-1" width="67.1328125" height="22.5"></rect><text y="-10.1" style=""><tspan class="text-outer-tspan" x="0" y="-0.1em" dy="1.1em"><tspan font-style="normal" class="text-inner-tspan" font-weight="normal">reatribuir</tspan></tspan></text></g></g></g><g class="edgeLabel" transform="translate(122.10546875, 1270.592185974121)"><g class="label" transform="translate(-15.34765625, -11.25)"><g><rect class="background" style="" x="-2" y="-1" width="30.6953125" height="22.5"></rect><text y="-10.1" style=""><tspan class="text-outer-tspan" x="0" y="-0.1em" dy="1.1em"><tspan font-style="normal" class="text-inner-tspan" font-weight="normal">não</tspan></tspan></text></g></g></g><g class="edgeLabel"><g class="label" transform="translate(0, 0)"><text y="-10.1"><tspan class="text-outer-tspan" x="0" y="-0.1em" dy="1.1em"></tspan></text></g></g><g class="edgeLabel" transform="translate(302, 1270.592185974121)"><g class="label" transform="translate(-14.44140625, -11.25)"><g><rect class="background" style="" x="-2" y="-1" width="28.8828125" height="22.5"></rect><text y="-10.1" style=""><tspan class="text-outer-tspan" x="0" y="-0.1em" dy="1.1em"><tspan font-style="normal" class="text-inner-tspan" font-weight="normal">sim</tspan></tspan></text></g></g></g><g class="edgeLabel"><g class="label" transform="translate(0, 0)"><text y="-10.1"><tspan class="text-outer-tspan" x="0" y="-0.1em" dy="1.1em"></tspan></text></g></g><g class="edgeLabel"><g class="label" transform="translate(0, 0)"><text y="-10.1"><tspan class="text-outer-tspan" x="0" y="-0.1em" dy="1.1em"></tspan></text></g></g><g class="edgeLabel"><g class="label" transform="translate(0, 0)"><text y="-10.1"><tspan class="text-outer-tspan" x="0" y="-0.1em" dy="1.1em"></tspan></text></g></g><g class="edgeLabel" transform="translate(942.470703125, 911.2921867370605)"><g class="label" transform="translate(-78.49609375, -20.049999237060547)"><g><rect class="background" style="" x="-2" y="-1" width="156.9921875" height="40.099998474121094"></rect><text y="-10.1" style=""><tspan class="text-outer-tspan" x="0" y="-0.1em" dy="1.1em"><tspan font-style="normal" class="text-inner-tspan" font-weight="normal">fila</tspan><tspan font-style="normal" class="text-inner-tspan" font-weight="normal"> &amp;gt;</tspan><tspan font-style="normal" class="text-inner-tspan" font-weight="normal"> capacidade</tspan><tspan font-style="normal" class="text-inner-tspan" font-weight="normal"> 3</tspan></tspan><tspan class="text-outer-tspan" x="0" y="1em" dy="1.1em"><tspan font-style="normal" class="text-inner-tspan" font-weight="normal">meses</tspan></tspan></text></g></g></g><g class="edgeLabel"><g class="label" transform="translate(0, 0)"><text y="-10.1"><tspan class="text-outer-tspan" x="0" y="-0.1em" dy="1.1em"></tspan></text></g></g></g><g class="nodes"><g class="node default  " id="flowchart-esc-389" transform="translate(307.916015625, 59)"><rect class="basic label-container" style="" x="-130" y="-51" width="260" height="102"></rect><g class="label" style="" transform="translate(-100, -36)"><rect></rect><foreignObject width="200" height="72"><div xmlns="http://www.w3.org/1999/xhtml" style="display: table; white-space: break-spaces; line-height: 1.5; max-width: 200px; text-align: center; width: 200px;"><span class="nodeLabel "><p>/organizacao/escala — semana, ausências, WIP, plantonista</p></span></div></foreignObject></g></g><g class="node default  " id="flowchart-g1-390" transform="translate(227.10546875, 309.12109375)"><polygon points="126.62109375,0 253.2421875,-126.62109375 126.62109375,-253.2421875 0,-126.62109375" class="label-container" transform="translate(-126.62109375,126.62109375)"></polygon><g class="label" style="" transform="translate(-99.62109375, -12)"><rect></rect><foreignObject width="199.2421875" height="24"><div xmlns="http://www.w3.org/1999/xhtml" style="display: table-cell; white-space: nowrap; line-height: 1.5; max-width: 200px; text-align: center;"><span class="nodeLabel "><p>plantonista em todo dia útil?</p></span></div></foreignObject></g></g><g class="node default  " id="flowchart-e1-392" transform="translate(307.916015625, 547.2421875)"><rect class="basic label-container" style="" x="-155.8046875" y="-39" width="311.609375" height="78"></rect><g class="label" style="" transform="translate(-125.8046875, -24)"><rect></rect><foreignObject width="251.609375" height="48"><div xmlns="http://www.w3.org/1999/xhtml" style="display: table; white-space: break-spaces; line-height: 1.5; max-width: 200px; text-align: center; width: 200px;"><span class="nodeLabel "><p>erro SCHEDULE_NO_DUTY_MEMBER</p></span></div></foreignObject></g></g><g class="node default  " id="flowchart-pub-395" transform="translate(643.720703125, 547.2421875)"><rect class="basic label-container" style="" x="-130" y="-39" width="260" height="78"></rect><g class="label" style="" transform="translate(-100, -24)"><rect></rect><foreignObject width="200" height="48"><div xmlns="http://www.w3.org/1999/xhtml" style="display: table; white-space: break-spaces; line-height: 1.5; max-width: 200px; text-align: center; width: 200px;"><span class="nodeLabel "><p>escala publicada — elegibilidade atualizada</p></span></div></foreignObject></g></g><g class="node default  " id="flowchart-radar-397" transform="translate(643.720703125, 687.2421875)"><rect class="basic label-container" style="" x="-130" y="-51" width="260" height="102"></rect><g class="label" style="" transform="translate(-100, -36)"><rect></rect><foreignObject width="200" height="72"><div xmlns="http://www.w3.org/1999/xhtml" style="display: table; white-space: break-spaces; line-height: 1.5; max-width: 200px; text-align: center; width: 200px;"><span class="nodeLabel "><p>/gestao/radar — plantão de risco: N2+, diligências vencidas, parados</p></span></div></foreignObject></g></g><g class="node default  " id="flowchart-drill-399" transform="translate(271.796875, 827.2421875)"><rect class="basic label-container" style="" x="-130" y="-39" width="260" height="78"></rect><g class="label" style="" transform="translate(-100, -24)"><rect></rect><foreignObject width="200" height="48"><div xmlns="http://www.w3.org/1999/xhtml" style="display: table; white-space: break-spaces; line-height: 1.5; max-width: 200px; text-align: center; width: 200px;"><span class="nodeLabel "><p>/gestao/radar/:caseId — causa do atraso</p></span></div></foreignObject></g></g><g class="node default  " id="flowchart-re-401" transform="translate(147, 1095.342185974121)"><polygon points="139,0 278,-139 139,-278 0,-139" class="label-container" transform="translate(-139,139)"></polygon><g class="label" style="" transform="translate(-100, -24)"><rect></rect><foreignObject width="200" height="48"><div xmlns="http://www.w3.org/1999/xhtml" style="display: table; white-space: break-spaces; line-height: 1.5; max-width: 200px; text-align: center; width: 200px;"><span class="nodeLabel "><p>motivo tipado e novo responsável elegível?</p></span></div></foreignObject></g></g><g class="node default  " id="flowchart-e2-403" transform="translate(234, 1357.842185974121)"><rect class="basic label-container" style="" x="-130" y="-39" width="260" height="78"></rect><g class="label" style="" transform="translate(-100, -24)"><rect></rect><foreignObject width="200" height="48"><div xmlns="http://www.w3.org/1999/xhtml" style="display: table; white-space: break-spaces; line-height: 1.5; max-width: 200px; text-align: center; width: 200px;"><span class="nodeLabel "><p>REASSIGN_* / MEMBER_IMPEDED</p></span></div></foreignObject></g></g><g class="node default  " id="flowchart-ok-406" transform="translate(544, 1357.842185974121)"><rect class="basic label-container" style="" x="-130" y="-51" width="260" height="102"></rect><g class="label" style="" transform="translate(-100, -36)"><rect></rect><foreignObject width="200" height="72"><div xmlns="http://www.w3.org/1999/xhtml" style="display: table; white-space: break-spaces; line-height: 1.5; max-width: 200px; text-align: center; width: 200px;"><span class="nodeLabel "><p>assignment liberado e novo criado — estado do caso inalterado</p></span></div></foreignObject></g></g><g class="node default  " id="flowchart-qual-408" transform="translate(643.720703125, 827.2421875)"><rect class="basic label-container" style="" x="-130" y="-39" width="260" height="78"></rect><g class="label" style="" transform="translate(-100, -24)"><rect></rect><foreignObject width="200" height="48"><div xmlns="http://www.w3.org/1999/xhtml" style="display: table; white-space: break-spaces; line-height: 1.5; max-width: 200px; text-align: center; width: 200px;"><span class="nodeLabel "><p>/gestao/qualidade — amostra 5% (F-DP-Q)</p></span></div></foreignObject></g></g><g class="node default  " id="flowchart-ach-410" transform="translate(643.720703125, 1095.342185974121)"><rect class="basic label-container" style="" x="-130" y="-63" width="260" height="126"></rect><g class="label" style="" transform="translate(-100, -48)"><rect></rect><foreignObject width="200" height="96"><div xmlns="http://www.w3.org/1999/xhtml" style="display: table; white-space: break-spaces; line-height: 1.5; max-width: 200px; text-align: center; width: 200px;"><span class="nodeLabel "><p>achado registrado (treinamento / recurso de ofício) — decisão não reabre</p></span></div></foreignObject></g></g><g class="node default  " id="flowchart-cap-412" transform="translate(1156.796875, 827.2421875)"><rect class="basic label-container" style="" x="-130" y="-39" width="260" height="78"></rect><g class="label" style="" transform="translate(-100, -24)"><rect></rect><foreignObject width="200" height="48"><div xmlns="http://www.w3.org/1999/xhtml" style="display: table; white-space: break-spaces; line-height: 1.5; max-width: 200px; text-align: center; width: 200px;"><span class="nodeLabel "><p>/gestao/capacidade — projeção e simulação</p></span></div></foreignObject></g></g><g class="node default  " id="flowchart-ges-414" transform="translate(942.470703125, 1095.342185974121)"><circle class="basic label-container" style="" r="107.5" cx="0" cy="0"></circle><g class="label" style="" transform="translate(-100, -24)"><rect></rect><foreignObject width="200" height="48"><div xmlns="http://www.w3.org/1999/xhtml" style="display: table; white-space: break-spaces; line-height: 1.5; max-width: 200px; text-align: center; width: 200px;"><span class="nodeLabel "><p>gatilho de nova turma → gestor (JW-09)</p></span></div></foreignObject></g></g><g class="node default  " id="flowchart-prod-416" transform="translate(1229.970703125, 1095.342185974121)"><rect class="basic label-container" style="" x="-130" y="-39" width="260" height="78"></rect><g class="label" style="" transform="translate(-100, -24)"><rect></rect><foreignObject width="200" height="48"><div xmlns="http://www.w3.org/1999/xhtml" style="display: table; white-space: break-spaces; line-height: 1.5; max-width: 200px; text-align: center; width: 200px;"><span class="nodeLabel "><p>/gestao/producao — tempo por fase, SLA-30</p></span></div></foreignObject></g></g></g></g></g></svg>