<?xml version="1.0" encoding="UTF-8"?>
<svg id="d3" width="100%" xmlns="http://www.w3.org/2000/svg" class="flowchart" style="max-width: 2961.09375px;" viewBox="0 0 2961.09375 863.25" role="graphics-document document" aria-roledescription="flowchart-v2"><rect data-bg="1" x="-2" y="-2" width="100%" height="100%" fill="#ffffff"/><style>#d3{font-family:Helvetica,Arial,sans-serif;font-size:16px;fill:#000000;}#d3 .error-icon{fill:#552222;}#d3 .error-text{fill:#552222;stroke:#552222;}#d3 .edge-thickness-normal{stroke-width:1px;}#d3 .edge-thickness-thick{stroke-width:3.5px;}#d3 .edge-pattern-solid{stroke-dasharray:0;}#d3 .edge-thickness-invisible{stroke-width:0;fill:none;}#d3 .edge-pattern-dashed{stroke-dasharray:3;}#d3 .edge-pattern-dotted{stroke-dasharray:2;}#d3 .marker{fill:#666;stroke:#666;}#d3 .marker.cross{stroke:#666;}#d3 svg{font-family:Helvetica,Arial,sans-serif;font-size:16px;}#d3 p{margin:0;}#d3 .label{font-family:Helvetica,Arial,sans-serif;color:#000000;}#d3 .cluster-label text{fill:#333;}#d3 .cluster-label span{color:#333;}#d3 .cluster-label span p{background-color:transparent;}#d3 .label text,#d3 span{fill:#000000;color:#000000;}#d3 .node rect,#d3 .node circle,#d3 .node ellipse,#d3 .node polygon,#d3 .node path{fill:#eee;stroke:#999;stroke-width:1px;}#d3 .rough-node .label text,#d3 .node .label text,#d3 .image-shape .label,#d3 .icon-shape .label{text-anchor:middle;}#d3 .node .katex path{fill:#000;stroke:#000;stroke-width:1px;}#d3 .rough-node .label,#d3 .node .label,#d3 .image-shape .label,#d3 .icon-shape .label{text-align:center;}#d3 .node.clickable{cursor:pointer;}#d3 .root .anchor path{fill:#666!important;stroke-width:0;stroke:#666;}#d3 .arrowheadPath{fill:#333333;}#d3 .edgePath .path{stroke:#666;stroke-width:2.0px;}#d3 .flowchart-link{stroke:#666;fill:none;}#d3 .edgeLabel{background-color:white;text-align:center;}#d3 .edgeLabel p{background-color:white;}#d3 .edgeLabel rect{opacity:0.5;background-color:white;fill:white;}#d3 .labelBkg{background-color:rgba(255, 255, 255, 0.5);}#d3 .cluster rect{fill:hsl(0, 0%, 98.9215686275%);stroke:#707070;stroke-width:1px;}#d3 .cluster text{fill:#333;}#d3 .cluster span{color:#333;}#d3 div.mermaidTooltip{position:absolute;text-align:center;max-width:200px;padding:2px;font-family:Helvetica,Arial,sans-serif;font-size:12px;background:hsl(-160, 0%, 93.3333333333%);border:1px solid #707070;border-radius:2px;pointer-events:none;z-index:100;}#d3 .flowchartTitleText{text-anchor:middle;font-size:18px;fill:#000000;}#d3 rect.text{fill:none;stroke-width:0;}#d3 .icon-shape,#d3 .image-shape{background-color:white;text-align:center;}#d3 .icon-shape p,#d3 .image-shape p{background-color:white;padding:2px;}#d3 .icon-shape rect,#d3 .image-shape rect{opacity:0.5;background-color:white;fill:white;}#d3 :root{--mermaid-font-family:Helvetica,Arial,sans-serif;}</style><g><marker id="d3_flowchart-v2-pointEnd" class="marker flowchart-v2" viewBox="0 0 10 10" refX="5" refY="5" markerUnits="userSpaceOnUse" markerWidth="8" markerHeight="8" orient="auto"><path d="M 0 0 L 10 5 L 0 10 z" class="arrowMarkerPath" style="stroke-width: 1; stroke-dasharray: 1, 0;"></path></marker><marker id="d3_flowchart-v2-pointStart" class="marker flowchart-v2" viewBox="0 0 10 10" refX="4.5" refY="5" markerUnits="userSpaceOnUse" markerWidth="8" markerHeight="8" orient="auto"><path d="M 0 5 L 10 10 L 10 0 z" class="arrowMarkerPath" style="stroke-width: 1; stroke-dasharray: 1, 0;"></path></marker><marker id="d3_flowchart-v2-circleEnd" class="marker flowchart-v2" viewBox="0 0 10 10" refX="11" refY="5" markerUnits="userSpaceOnUse" markerWidth="11" markerHeight="11" orient="auto"><circle cx="5" cy="5" r="5" class="arrowMarkerPath" style="stroke-width: 1; stroke-dasharray: 1, 0;"></circle></marker><marker id="d3_flowchart-v2-circleStart" class="marker flowchart-v2" viewBox="0 0 10 10" refX="-1" refY="5" markerUnits="userSpaceOnUse" markerWidth="11" markerHeight="11" orient="auto"><circle cx="5" cy="5" r="5" class="arrowMarkerPath" style="stroke-width: 1; stroke-dasharray: 1, 0;"></circle></marker><marker id="d3_flowchart-v2-crossEnd" class="marker cross flowchart-v2" viewBox="0 0 11 11" refX="12" refY="5.2" markerUnits="userSpaceOnUse" markerWidth="11" markerHeight="11" orient="auto"><path d="M 1,1 l 9,9 M 10,1 l -9,9" class="arrowMarkerPath" style="stroke-width: 2; stroke-dasharray: 1, 0;"></path></marker><marker id="d3_flowchart-v2-crossStart" class="marker cross flowchart-v2" viewBox="0 0 11 11" refX="-1" refY="5.2" markerUnits="userSpaceOnUse" markerWidth="11" markerHeight="11" orient="auto"><path d="M 1,1 l 9,9 M 10,1 l -9,9" class="arrowMarkerPath" style="stroke-width: 2; stroke-dasharray: 1, 0;"></path></marker><g class="root"><g class="clusters"><g class="cluster " id="p3_org" data-look="classic"><rect style="" x="1462.0703125" y="8" width="1491.0234375" height="445"></rect><g class="cluster-label " transform="translate(2131.1015625, 8)"><g><rect class="background" style="stroke: none"></rect><text y="-10.1" style=""><tspan class="text-outer-tspan" x="0" y="-0.1em" dy="1.1em"><tspan font-style="normal" class="text-inner-tspan" font-weight="normal">Raia:</tspan><tspan font-style="normal" class="text-inner-tspan" font-weight="normal"> Processamento</tspan></tspan><tspan class="text-outer-tspan" x="0" y="1em" dy="1.1em"><tspan font-style="normal" class="text-inner-tspan" font-weight="normal">(DETRAN-AM)</tspan></tspan></text></g></g></g><g class="cluster " id="p3_cid" data-look="classic"><rect style="" x="163.7421875" y="8" width="1137.609375" height="417"></rect><g class="cluster-label " transform="translate(653.83984375, 8)"><g><rect class="background" style="stroke: none"></rect><text y="-10.1" style=""><tspan class="text-outer-tspan" x="0" y="-0.1em" dy="1.1em"><tspan font-style="normal" class="text-inner-tspan" font-weight="normal">Raia:</tspan><tspan font-style="normal" class="text-inner-tspan" font-weight="normal"> Cidadão</tspan><tspan font-style="normal" class="text-inner-tspan" font-weight="normal"> (Portal,</tspan></tspan><tspan class="text-outer-tspan" x="0" y="1em" dy="1.1em"><tspan font-style="normal" class="text-inner-tspan" font-weight="normal">[UC-PORTAL-004])</tspan></tspan></text></g></g></g></g><g class="edgePaths"><path d="M76.871,448.642L87.183,481.118C97.495,513.595,118.119,578.547,132.597,611.024C147.076,643.5,155.409,643.5,166.826,643.5C178.242,643.5,192.742,643.5,199.992,643.5L207.242,643.5" id="L_S0_tm_ind_0" class=" edge-thickness-normal edge-pattern-solid edge-thickness-normal edge-pattern-solid flowchart-link" style="" marker-end="url(#d3_flowchart-v2-pointEnd)"></path><path d="M77.549,348.078L87.748,317.399C97.947,286.719,118.345,225.359,132.71,194.68C147.076,164,155.409,164,163.076,164C170.742,164,177.742,164,181.242,164L184.742,164" id="L_S0_C1_1" class=" edge-thickness-normal edge-pattern-solid edge-thickness-normal edge-pattern-solid flowchart-link" style="" marker-end="url(#d3_flowchart-v2-pointEnd)"></path><path d="M409.604,215L420.294,221C430.984,227,452.363,239,466.636,245.07C480.909,251.141,488.076,251.281,491.659,251.351L495.243,251.422" id="L_C1_C2_2" class=" edge-thickness-normal edge-pattern-solid edge-thickness-normal edge-pattern-solid flowchart-link" style="" marker-end="url(#d3_flowchart-v2-pointEnd)"></path><path d="M747.203,281.539L772.094,288.341C796.984,295.143,846.766,308.746,896.894,308.339C947.023,307.933,997.499,293.516,1022.737,286.307L1047.975,279.099" id="L_C2_C3_3" class=" edge-thickness-normal edge-pattern-solid edge-thickness-normal edge-pattern-solid flowchart-link" style="" marker-end="url(#d3_flowchart-v2-pointEnd)"></path><path d="M748.666,222.924L773.313,216.441C797.96,209.958,847.253,196.991,896.106,196.998C944.959,197.005,993.371,209.984,1017.577,216.474L1041.783,222.964" id="L_C2_C3_4" class=" edge-thickness-normal edge-pattern-solid edge-thickness-normal edge-pattern-solid flowchart-link" style="" marker-end="url(#d3_flowchart-v2-pointEnd)"></path><path d="M1248.836,251L1257.589,251C1266.341,251,1283.846,251,1305.992,251C1328.138,251,1354.924,251,1381.711,251C1408.497,251,1435.284,251,1452.177,251C1469.07,251,1476.07,251,1479.57,251L1483.07,251" id="L_C3_O1_5" class=" edge-thickness-normal edge-pattern-dotted edge-thickness-normal edge-pattern-solid flowchart-link" style="" marker-end="url(#d3_flowchart-v2-pointEnd)"></path><path d="M1747.07,251L1751.237,251C1755.404,251,1763.737,251,1771.487,251.07C1779.237,251.141,1786.404,251.281,1789.988,251.351L1793.571,251.422" id="L_O1_G1_6" class=" edge-thickness-normal edge-pattern-solid edge-thickness-normal edge-pattern-solid flowchart-link" style="" marker-end="url(#d3_flowchart-v2-pointEnd)"></path><path d="M1890.01,231.237L1910.997,219.322C1931.985,207.408,1973.959,183.579,2011.997,166.917C2050.036,150.256,2084.138,140.761,2101.189,136.014L2118.24,131.267" id="L_G1_O2_7" class=" edge-thickness-normal edge-pattern-solid edge-thickness-normal edge-pattern-solid flowchart-link" style="" marker-end="url(#d3_flowchart-v2-pointEnd)"></path><path d="M2122.094,84.642L2104.4,83.368C2086.707,82.095,2051.32,79.547,2006.542,78.274C1961.763,77,1907.592,77,1866.949,77C1826.305,77,1799.188,77,1759.796,77C1720.404,77,1668.737,77,1617.07,77C1565.404,77,1513.737,77,1474.51,77C1435.284,77,1408.497,77,1381.711,77C1354.924,77,1328.138,77,1288.911,77C1249.685,77,1198.018,77,1130.551,77C1063.083,77,979.815,77,895.047,77C810.279,77,724.01,77,653.543,77C583.076,77,528.409,77,490.967,82.674C453.526,88.347,433.309,99.695,423.201,105.368L413.092,111.042" id="L_O2_C1_8" class=" edge-thickness-normal edge-pattern-dotted edge-thickness-normal edge-pattern-solid flowchart-link" style="" marker-end="url(#d3_flowchart-v2-pointEnd)"></path><path d="M1910.273,251.5L1927.883,251.417C1945.493,251.333,1980.714,251.167,2015.35,251.083C2049.987,251,2084.04,251,2101.067,251L2118.094,251" id="L_G1_O3_9" class=" edge-thickness-normal edge-pattern-solid edge-thickness-normal edge-pattern-solid flowchart-link" style="" marker-end="url(#d3_flowchart-v2-pointEnd)"></path><path d="M2382.094,251L2386.26,251C2390.427,251,2398.76,251,2406.511,251.07C2414.261,251.141,2421.428,251.281,2425.011,251.351L2428.595,251.422" id="L_O3_O4_10" class=" edge-thickness-normal edge-pattern-solid edge-thickness-normal edge-pattern-solid flowchart-link" style="" marker-end="url(#d3_flowchart-v2-pointEnd)"></path><path d="M2654.1,220L2659.765,218.208C2665.431,216.417,2676.762,212.833,2685.928,211.042C2695.094,209.25,2702.094,209.25,2705.594,209.25L2709.094,209.25" id="L_O4_S1_11" class=" edge-thickness-normal edge-pattern-solid edge-thickness-normal edge-pattern-solid flowchart-link" style="" marker-end="url(#d3_flowchart-v2-pointEnd)"></path><path d="M1885.445,276.329L1907.193,293.441C1928.941,310.552,1972.437,344.776,2011.212,361.888C2049.987,379,2084.04,379,2101.067,379L2118.094,379" id="L_G1_O5_12" class=" edge-thickness-normal edge-pattern-solid edge-thickness-normal edge-pattern-solid flowchart-link" style="" marker-end="url(#d3_flowchart-v2-pointEnd)"></path><path d="M426.242,643.5L434.159,643.5C442.076,643.5,457.909,643.5,477.551,643.579C497.194,643.658,520.646,643.815,532.372,643.894L544.098,643.973" id="L_tm_ind_G2_13" class=" edge-thickness-normal edge-pattern-solid edge-thickness-normal edge-pattern-solid flowchart-link" style="" marker-end="url(#d3_flowchart-v2-pointEnd)"></path><path d="M702.502,618.115L734.843,604.971C767.184,591.827,831.865,565.538,883.507,552.394C935.148,539.25,973.75,539.25,993.051,539.25L1012.352,539.25" id="L_G2_O6_14" class=" edge-thickness-normal edge-pattern-solid edge-thickness-normal edge-pattern-solid flowchart-link" style="" marker-end="url(#d3_flowchart-v2-pointEnd)"></path><path d="M702.502,669.885L734.843,682.862C767.184,695.84,831.865,721.795,887.257,734.772C942.648,747.75,988.75,747.75,1011.801,747.75L1034.852,747.75" id="L_G2_S2_15" class=" edge-thickness-normal edge-pattern-solid edge-thickness-normal edge-pattern-solid flowchart-link" style="" marker-end="url(#d3_flowchart-v2-pointEnd)"></path><path d="M2596.728,283L2611.956,292.833C2627.183,302.667,2657.639,322.333,2686.341,357.947C2715.044,393.561,2741.994,445.123,2755.469,470.903L2768.944,496.684" id="L_O4_tm_nai_16" class=" edge-thickness-normal edge-pattern-solid edge-thickness-normal edge-pattern-solid flowchart-link" style="" marker-end="url(#d3_flowchart-v2-pointEnd)"></path></g><g class="edgeLabels"><g><rect class="background" style="stroke: none"></rect></g><g><rect class="background" style="stroke: none"></rect></g><g><rect class="background" style="stroke: none"></rect></g><g><rect class="background" style="stroke: none"></rect></g><g><rect class="background" style="stroke: none"></rect></g><g><rect class="background" style="stroke: none"></rect></g><g><rect class="background" style="stroke: none"></rect></g><g><rect class="background" style="stroke: none"></rect></g><g><rect class="background" style="stroke: none"></rect></g><g class="edgeLabel"><g class="label" transform="translate(0, 0)"><text y="-10.1"><tspan class="text-outer-tspan" x="0" y="-0.1em" dy="1.1em"></tspan></text></g></g><g class="edgeLabel"><g class="label" transform="translate(0, 0)"><text y="-10.1"><tspan class="text-outer-tspan" x="0" y="-0.1em" dy="1.1em"></tspan></text></g></g><g class="edgeLabel"><g class="label" transform="translate(0, 0)"><text y="-10.1"><tspan class="text-outer-tspan" x="0" y="-0.1em" dy="1.1em"></tspan></text></g></g><g class="edgeLabel" transform="translate(896.546875, 322.349609375)"><g class="label" transform="translate(-94.8046875, -11.30078125)"><g><rect class="background" style="" x="-2" y="-1" width="189.609375" height="22.6015625"></rect><text y="-10.1" style=""><tspan class="text-outer-tspan" x="0" y="-0.1em" dy="1.1em"><tspan font-style="normal" class="text-inner-tspan" font-weight="normal">gov.br</tspan><tspan font-style="normal" class="text-inner-tspan" font-weight="normal"> avançada</tspan><tspan font-style="normal" class="text-inner-tspan" font-weight="normal"> no</tspan><tspan font-style="normal" class="text-inner-tspan" font-weight="normal"> Portal</tspan></tspan></text></g></g></g><g class="edgeLabel" transform="translate(896.546875, 184.02499961853027)"><g class="label" transform="translate(-89.61328125, -20.049999237060547)"><g><rect class="background" style="" x="-2" y="-1" width="179.2265625" height="40.099998474121094"></rect><text y="-10.1" style=""><tspan class="text-outer-tspan" x="0" y="-0.1em" dy="1.1em"><tspan font-style="normal" class="text-inner-tspan" font-weight="normal">documento</tspan><tspan font-style="normal" class="text-inner-tspan" font-weight="normal"> assinado</tspan><tspan font-style="normal" class="text-inner-tspan" font-weight="normal"> por</tspan></tspan><tspan class="text-outer-tspan" x="0" y="1em" dy="1.1em"><tspan font-style="normal" class="text-inner-tspan" font-weight="normal">ambos</tspan></tspan></text></g></g></g><g class="edgeLabel" transform="translate(1381.7109375, 251)"><g class="label" transform="translate(-55.359375, -11.30078125)"><g><rect class="background" style="" x="-2" y="-1" width="110.71875" height="22.6015625"></rect><text y="-10.1" style=""><tspan class="text-outer-tspan" x="0" y="-0.1em" dy="1.1em"><tspan font-style="normal" class="text-inner-tspan" font-weight="normal">msg:</tspan><tspan font-style="normal" class="text-inner-tspan" font-weight="normal"> indicação</tspan></tspan></text></g></g></g><g class="edgeLabel"><g class="label" transform="translate(0, 0)"><text y="-10.1"><tspan class="text-outer-tspan" x="0" y="-0.1em" dy="1.1em"></tspan></text></g></g><g class="edgeLabel" transform="translate(2015.93359375, 159.75)"><g class="label" transform="translate(-15.34765625, -11.25)"><g><rect class="background" style="" x="-2" y="-1" width="30.6953125" height="22.5"></rect><text y="-10.1" style=""><tspan class="text-outer-tspan" x="0" y="-0.1em" dy="1.1em"><tspan font-style="normal" class="text-inner-tspan" font-weight="normal">não</tspan></tspan></text></g></g></g><g class="edgeLabel"><g class="label" transform="translate(0, 0)"><text y="-10.1"><tspan class="text-outer-tspan" x="0" y="-0.1em" dy="1.1em"></tspan></text></g></g><g class="edgeLabel" transform="translate(2015.93359375, 251)"><g class="label" transform="translate(-14.44140625, -11.25)"><g><rect class="background" style="" x="-2" y="-1" width="28.8828125" height="22.5"></rect><text y="-10.1" style=""><tspan class="text-outer-tspan" x="0" y="-0.1em" dy="1.1em"><tspan font-style="normal" class="text-inner-tspan" font-weight="normal">sim</tspan></tspan></text></g></g></g><g class="edgeLabel"><g class="label" transform="translate(0, 0)"><text y="-10.1"><tspan class="text-outer-tspan" x="0" y="-0.1em" dy="1.1em"></tspan></text></g></g><g class="edgeLabel"><g class="label" transform="translate(0, 0)"><text y="-10.1"><tspan class="text-outer-tspan" x="0" y="-0.1em" dy="1.1em"></tspan></text></g></g><g class="edgeLabel" transform="translate(2015.93359375, 379)"><g class="label" transform="translate(-81.16015625, -11.25)"><g><rect class="background" style="" x="-2" y="-1" width="162.3203125" height="22.5"></rect><text y="-10.1" style=""><tspan class="text-outer-tspan" x="0" y="-0.1em" dy="1.1em"><tspan font-style="normal" class="text-inner-tspan" font-weight="normal">enquadra</tspan><tspan font-style="normal" class="text-inner-tspan" font-weight="normal"> CTB</tspan><tspan font-style="normal" class="text-inner-tspan" font-weight="normal"> art.162</tspan></tspan></text></g></g></g><g class="edgeLabel"><g class="label" transform="translate(0, 0)"><text y="-10.1"><tspan class="text-outer-tspan" x="0" y="-0.1em" dy="1.1em"></tspan></text></g></g><g class="edgeLabel" transform="translate(896.546875, 539.25)"><g class="label" transform="translate(-14.44140625, -11.25)"><g><rect class="background" style="" x="-2" y="-1" width="28.8828125" height="22.5"></rect><text y="-10.1" style=""><tspan class="text-outer-tspan" x="0" y="-0.1em" dy="1.1em"><tspan font-style="normal" class="text-inner-tspan" font-weight="normal">sim</tspan></tspan></text></g></g></g><g class="edgeLabel" transform="translate(896.546875, 747.75)"><g class="label" transform="translate(-15.34765625, -11.25)"><g><rect class="background" style="" x="-2" y="-1" width="30.6953125" height="22.5"></rect><text y="-10.1" style=""><tspan class="text-outer-tspan" x="0" y="-0.1em" dy="1.1em"><tspan font-style="normal" class="text-inner-tspan" font-weight="normal">não</tspan></tspan></text></g></g></g><g class="edgeLabel"><g class="label" transform="translate(0, 0)"><text y="-10.1"><tspan class="text-outer-tspan" x="0" y="-0.1em" dy="1.1em"></tspan></text></g></g></g><g class="nodes"><g class="node default  " id="flowchart-S0-145" transform="translate(60.87109375, 398.25)"><circle class="basic label-container" style="" r="52.87109375" cx="0" cy="0"></circle><g class="label" style="" transform="translate(-45.37109375, -12)"><rect></rect><foreignObject width="90.7421875" height="24"><div xmlns="http://www.w3.org/1999/xhtml" style="display: table-cell; white-space: nowrap; line-height: 1.5; max-width: 200px; text-align: center;"><span class="nodeLabel "><p>NA expedida</p></span></div></foreignObject></g></g><g class="node default  " id="flowchart-tm_ind-146" transform="translate(318.7421875, 643.5)"><circle class="basic label-container" style="" r="107.5" cx="0" cy="0"></circle><g class="label" style="" transform="translate(-100, -24)"><rect></rect><foreignObject width="200" height="48"><div xmlns="http://www.w3.org/1999/xhtml" style="display: table; white-space: break-spaces; line-height: 1.5; max-width: 200px; text-align: center; width: 200px;"><span class="nodeLabel "><p>T-IND: 30 dias da NA - CTB 257 §7º</p></span></div></foreignObject></g></g><g class="node default  " id="flowchart-C1-148" transform="translate(318.7421875, 164)"><rect class="basic label-container" style="" x="-130" y="-51" width="260" height="102"></rect><g class="label" style="" transform="translate(-100, -36)"><rect></rect><foreignObject width="200" height="72"><div xmlns="http://www.w3.org/1999/xhtml" style="display: table; white-space: break-spaces; line-height: 1.5; max-width: 200px; text-align: center; width: 200px;"><span class="nodeLabel "><p>Proprietário / principal condutor preenche formulário - 918 art.5º</p></span></div></foreignObject></g></g><g class="node default  " id="flowchart-C2-150" transform="translate(637.7421875, 251)"><polygon points="139,0 278,-139 139,-278 0,-139" class="label-container" transform="translate(-139,139)"></polygon><g class="label" style="" transform="translate(-100, -24)"><rect></rect><foreignObject width="200" height="48"><div xmlns="http://www.w3.org/1999/xhtml" style="display: table; white-space: break-spaces; line-height: 1.5; max-width: 200px; text-align: center; width: 200px;"><span class="nodeLabel "><p>assinatura do condutor indicado?</p></span></div></foreignObject></g></g><g class="node default  " id="flowchart-C3-152" transform="translate(1146.3515625, 251)"><rect class="basic label-container" style="" x="-102.484375" y="-27" width="204.96875" height="54"></rect><g class="label" style="" transform="translate(-72.484375, -12)"><rect></rect><foreignObject width="144.96875" height="24"><div xmlns="http://www.w3.org/1999/xhtml" style="display: table-cell; white-space: nowrap; line-height: 1.5; max-width: 200px; text-align: center;"><span class="nodeLabel "><p>Protocolar indicação</p></span></div></foreignObject></g></g><g class="node default  " id="flowchart-O1-156" transform="translate(1617.0703125, 251)"><rect class="basic label-container" style="" x="-130" y="-51" width="260" height="102"></rect><g class="label" style="" transform="translate(-100, -36)"><rect></rect><foreignObject width="200" height="72"><div xmlns="http://www.w3.org/1999/xhtml" style="display: table; white-space: break-spaces; line-height: 1.5; max-width: 200px; text-align: center; width: 200px;"><span class="nodeLabel "><p>Validar conteúdo mínimo e legitimidade - 918 art.5º I-X, art.6º</p></span></div></foreignObject></g></g><g class="node default  " id="flowchart-G1-158" transform="translate(1853.421875, 251)"><polygon points="56.3515625,0 112.703125,-56.3515625 56.3515625,-112.703125 0,-56.3515625" class="label-container" transform="translate(-56.3515625,56.3515625)"></polygon><g class="label" style="" transform="translate(-29.3515625, -12)"><rect></rect><foreignObject width="58.703125" height="24"><div xmlns="http://www.w3.org/1999/xhtml" style="display: table-cell; white-space: nowrap; line-height: 1.5; max-width: 200px; text-align: center;"><span class="nodeLabel "><p>regular?</p></span></div></foreignObject></g></g><g class="node default  " id="flowchart-O2-160" transform="translate(2252.09375, 94)"><rect class="basic label-container" style="" x="-130" y="-51" width="260" height="102"></rect><g class="label" style="" transform="translate(-100, -36)"><rect></rect><foreignObject width="200" height="72"><div xmlns="http://www.w3.org/1999/xhtml" style="display: table; white-space: break-spaces; line-height: 1.5; max-width: 200px; text-align: center; width: 200px;"><span class="nodeLabel "><p>Devolver com campo apontado - RN-PORTAL uso único</p></span></div></foreignObject></g></g><g class="node default  " id="flowchart-O3-164" transform="translate(2252.09375, 251)"><rect class="basic label-container" style="" x="-130" y="-39" width="260" height="78"></rect><g class="label" style="" transform="translate(-100, -24)"><rect></rect><foreignObject width="200" height="48"><div xmlns="http://www.w3.org/1999/xhtml" style="display: table; white-space: break-spaces; line-height: 1.5; max-width: 200px; text-align: center; width: 200px;"><span class="nodeLabel "><p>Registrar indicação no RENACH - 918 art.5º §6º</p></span></div></foreignObject></g></g><g class="node default  " id="flowchart-O4-166" transform="translate(2547.59375, 251)"><polygon points="0,0 215,0 215,-63 0,-63 0,0 -8,0 223,0 223,-63 -8,-63 -8,0" class="label-container" transform="translate(-107.5,31.5)"></polygon><g class="label" style="" transform="translate(-100, -24)"><rect></rect><foreignObject width="200" height="48"><div xmlns="http://www.w3.org/1999/xhtml" style="display: table; white-space: break-spaces; line-height: 1.5; max-width: 200px; text-align: center; width: 200px;"><span class="nodeLabel "><p>P2 Notificar - NA ao condutor indicado</p></span></div></foreignObject></g></g><g class="node default  " id="flowchart-S1-168" transform="translate(2820.59375, 209.25)"><circle class="basic label-container" style="" r="107.5" cx="0" cy="0"></circle><g class="label" style="" transform="translate(-100, -24)"><rect></rect><foreignObject width="200" height="48"><div xmlns="http://www.w3.org/1999/xhtml" style="display: table; white-space: break-spaces; line-height: 1.5; max-width: 200px; text-align: center; width: 200px;"><span class="nodeLabel "><p>sujeito passivo = condutor; novo T-DEF</p></span></div></foreignObject></g></g><g class="node default  " id="flowchart-O5-170" transform="translate(2252.09375, 379)"><rect class="basic label-container" style="" x="-130" y="-39" width="260" height="78"></rect><g class="label" style="" transform="translate(-100, -24)"><rect></rect><foreignObject width="200" height="48"><div xmlns="http://www.w3.org/1999/xhtml" style="display: table; white-space: break-spaces; line-height: 1.5; max-width: 200px; text-align: center; width: 200px;"><span class="nodeLabel "><p>Gerar novos AITs - 918 art.5º §2º</p></span></div></foreignObject></g></g><g class="node default  " id="flowchart-G2-172" transform="translate(637.7421875, 643.5)"><polygon points="90.14453125,0 180.2890625,-90.14453125 90.14453125,-180.2890625 0,-90.14453125" class="label-container" transform="translate(-90.14453125,90.14453125)"></polygon><g class="label" style="" transform="translate(-63.14453125, -12)"><rect></rect><foreignObject width="126.2890625" height="24"><div xmlns="http://www.w3.org/1999/xhtml" style="display: table-cell; white-space: nowrap; line-height: 1.5; max-width: 200px; text-align: center;"><span class="nodeLabel "><p>proprietário é PJ?</p></span></div></foreignObject></g></g><g class="node default  " id="flowchart-O6-174" transform="translate(1146.3515625, 539.25)"><rect class="basic label-container" style="" x="-130" y="-51" width="260" height="102"></rect><g class="label" style="" transform="translate(-100, -36)"><rect></rect><foreignObject width="200" height="72"><div xmlns="http://www.w3.org/1999/xhtml" style="display: table; white-space: break-spaces; line-height: 1.5; max-width: 200px; text-align: center; width: 200px;"><span class="nodeLabel "><p>Lavrar nova multa ao proprietário (2x) - CTB 257 §8º, com defesa e recurso</p></span></div></foreignObject></g></g><g class="node default  " id="flowchart-S2-176" transform="translate(1146.3515625, 747.75)"><circle class="basic label-container" style="" r="107.5" cx="0" cy="0"></circle><g class="label" style="" transform="translate(-100, -24)"><rect></rect><foreignObject width="200" height="48"><div xmlns="http://www.w3.org/1999/xhtml" style="display: table; white-space: break-spaces; line-height: 1.5; max-width: 200px; text-align: center; width: 200px;"><span class="nodeLabel "><p>responsável = principal condutor ou proprietário</p></span></div></foreignObject></g></g><g class="node default  " id="flowchart-tm_nai-178" transform="translate(2820.59375, 595.5)"><circle class="basic label-container" style="" r="107.5" cx="0" cy="0"></circle><g class="label" style="" transform="translate(-100, -36)"><rect></rect><foreignObject width="200" height="72"><div xmlns="http://www.w3.org/1999/xhtml" style="display: table; white-space: break-spaces; line-height: 1.5; max-width: 200px; text-align: center; width: 200px;"><span class="nodeLabel "><p>T-NA-IND: 30 dias do protocolo da indicação para expedir a nova NA</p></span></div></foreignObject></g></g></g></g></g></svg>