<?xml version="1.0" encoding="UTF-8"?>
<svg id="d2" width="100%" xmlns="http://www.w3.org/2000/svg" class="flowchart" style="max-width: 3179.234375px;" viewBox="0 0 3179.234375 1231.3687744140625" role="graphics-document document" aria-roledescription="flowchart-v2"><rect data-bg="1" x="-2" y="-2" width="100%" height="100%" fill="#ffffff"/><style>#d2{font-family:Helvetica,Arial,sans-serif;font-size:16px;fill:#000000;}#d2 .error-icon{fill:#552222;}#d2 .error-text{fill:#552222;stroke:#552222;}#d2 .edge-thickness-normal{stroke-width:1px;}#d2 .edge-thickness-thick{stroke-width:3.5px;}#d2 .edge-pattern-solid{stroke-dasharray:0;}#d2 .edge-thickness-invisible{stroke-width:0;fill:none;}#d2 .edge-pattern-dashed{stroke-dasharray:3;}#d2 .edge-pattern-dotted{stroke-dasharray:2;}#d2 .marker{fill:#666;stroke:#666;}#d2 .marker.cross{stroke:#666;}#d2 svg{font-family:Helvetica,Arial,sans-serif;font-size:16px;}#d2 p{margin:0;}#d2 .label{font-family:Helvetica,Arial,sans-serif;color:#000000;}#d2 .cluster-label text{fill:#333;}#d2 .cluster-label span{color:#333;}#d2 .cluster-label span p{background-color:transparent;}#d2 .label text,#d2 span{fill:#000000;color:#000000;}#d2 .node rect,#d2 .node circle,#d2 .node ellipse,#d2 .node polygon,#d2 .node path{fill:#eee;stroke:#999;stroke-width:1px;}#d2 .rough-node .label text,#d2 .node .label text,#d2 .image-shape .label,#d2 .icon-shape .label{text-anchor:middle;}#d2 .node .katex path{fill:#000;stroke:#000;stroke-width:1px;}#d2 .rough-node .label,#d2 .node .label,#d2 .image-shape .label,#d2 .icon-shape .label{text-align:center;}#d2 .node.clickable{cursor:pointer;}#d2 .root .anchor path{fill:#666!important;stroke-width:0;stroke:#666;}#d2 .arrowheadPath{fill:#333333;}#d2 .edgePath .path{stroke:#666;stroke-width:2.0px;}#d2 .flowchart-link{stroke:#666;fill:none;}#d2 .edgeLabel{background-color:white;text-align:center;}#d2 .edgeLabel p{background-color:white;}#d2 .edgeLabel rect{opacity:0.5;background-color:white;fill:white;}#d2 .labelBkg{background-color:rgba(255, 255, 255, 0.5);}#d2 .cluster rect{fill:hsl(0, 0%, 98.9215686275%);stroke:#707070;stroke-width:1px;}#d2 .cluster text{fill:#333;}#d2 .cluster span{color:#333;}#d2 div.mermaidTooltip{position:absolute;text-align:center;max-width:200px;padding:2px;font-family:Helvetica,Arial,sans-serif;font-size:12px;background:hsl(-160, 0%, 93.3333333333%);border:1px solid #707070;border-radius:2px;pointer-events:none;z-index:100;}#d2 .flowchartTitleText{text-anchor:middle;font-size:18px;fill:#000000;}#d2 rect.text{fill:none;stroke-width:0;}#d2 .icon-shape,#d2 .image-shape{background-color:white;text-align:center;}#d2 .icon-shape p,#d2 .image-shape p{background-color:white;padding:2px;}#d2 .icon-shape rect,#d2 .image-shape rect{opacity:0.5;background-color:white;fill:white;}#d2 :root{--mermaid-font-family:Helvetica,Arial,sans-serif;}</style><g><marker id="d2_flowchart-v2-pointEnd" class="marker flowchart-v2" viewBox="0 0 10 10" refX="5" refY="5" markerUnits="userSpaceOnUse" markerWidth="8" markerHeight="8" orient="auto"><path d="M 0 0 L 10 5 L 0 10 z" class="arrowMarkerPath" style="stroke-width: 1; stroke-dasharray: 1, 0;"></path></marker><marker id="d2_flowchart-v2-pointStart" class="marker flowchart-v2" viewBox="0 0 10 10" refX="4.5" refY="5" markerUnits="userSpaceOnUse" markerWidth="8" markerHeight="8" orient="auto"><path d="M 0 5 L 10 10 L 10 0 z" class="arrowMarkerPath" style="stroke-width: 1; stroke-dasharray: 1, 0;"></path></marker><marker id="d2_flowchart-v2-circleEnd" class="marker flowchart-v2" viewBox="0 0 10 10" refX="11" refY="5" markerUnits="userSpaceOnUse" markerWidth="11" markerHeight="11" orient="auto"><circle cx="5" cy="5" r="5" class="arrowMarkerPath" style="stroke-width: 1; stroke-dasharray: 1, 0;"></circle></marker><marker id="d2_flowchart-v2-circleStart" class="marker flowchart-v2" viewBox="0 0 10 10" refX="-1" refY="5" markerUnits="userSpaceOnUse" markerWidth="11" markerHeight="11" orient="auto"><circle cx="5" cy="5" r="5" class="arrowMarkerPath" style="stroke-width: 1; stroke-dasharray: 1, 0;"></circle></marker><marker id="d2_flowchart-v2-crossEnd" class="marker cross flowchart-v2" viewBox="0 0 11 11" refX="12" refY="5.2" markerUnits="userSpaceOnUse" markerWidth="11" markerHeight="11" orient="auto"><path d="M 1,1 l 9,9 M 10,1 l -9,9" class="arrowMarkerPath" style="stroke-width: 2; stroke-dasharray: 1, 0;"></path></marker><marker id="d2_flowchart-v2-crossStart" class="marker cross flowchart-v2" viewBox="0 0 11 11" refX="-1" refY="5.2" markerUnits="userSpaceOnUse" markerWidth="11" markerHeight="11" orient="auto"><path d="M 1,1 l 9,9 M 10,1 l -9,9" class="arrowMarkerPath" style="stroke-width: 2; stroke-dasharray: 1, 0;"></path></marker><g class="root"><g class="clusters"><g class="cluster " id="p2_edit" data-look="classic"><rect style="" x="2647.3515625" y="929.4273433685303" width="258.8828125" height="278.8828125"></rect><g class="cluster-label " transform="translate(2691.859375, 929.4273433685303)"><g><rect class="background" style="stroke: none"></rect><text y="-10.1" style=""><tspan class="text-outer-tspan" x="0" y="-0.1em" dy="1.1em"><tspan font-style="normal" class="text-inner-tspan" font-weight="normal">Canal</tspan><tspan font-style="normal" class="text-inner-tspan" font-weight="normal"> residual:</tspan><tspan font-style="normal" class="text-inner-tspan" font-weight="normal"> edital</tspan><tspan font-style="normal" class="text-inner-tspan" font-weight="normal"> —</tspan></tspan><tspan class="text-outer-tspan" x="0" y="1em" dy="1.1em"><tspan font-style="normal" class="text-inner-tspan" font-weight="normal">[REF-CONTRAN-918]</tspan></tspan><tspan class="text-outer-tspan" x="0" y="2.1em" dy="1.1em"><tspan font-style="normal" class="text-inner-tspan" font-weight="normal">art.14</tspan></tspan></text></g></g></g><g class="cluster " id="p2_post" data-look="classic"><rect style="" x="634.578125" y="615.0640621185303" width="1962.7734375" height="608.3046875"></rect><g class="cluster-label " transform="translate(1527.02734375, 615.0640621185303)"><g><rect class="background" style="stroke: none"></rect><text y="-10.1" style=""><tspan class="text-outer-tspan" x="0" y="-0.1em" dy="1.1em"><tspan font-style="normal" class="text-inner-tspan" font-weight="normal">Canal</tspan><tspan font-style="normal" class="text-inner-tspan" font-weight="normal"> postal</tspan><tspan font-style="normal" class="text-inner-tspan" font-weight="normal"> /</tspan><tspan font-style="normal" class="text-inner-tspan" font-weight="normal"> pessoal</tspan><tspan font-style="normal" class="text-inner-tspan" font-weight="normal"> —</tspan></tspan><tspan class="text-outer-tspan" x="0" y="1em" dy="1.1em"><tspan font-style="normal" class="text-inner-tspan" font-weight="normal">[REF-CONTRAN-918]</tspan></tspan><tspan class="text-outer-tspan" x="0" y="2.1em" dy="1.1em"><tspan font-style="normal" class="text-inner-tspan" font-weight="normal">arts.30-32</tspan></tspan></text></g></g></g><g class="cluster " id="p2_sne" data-look="classic"><rect style="" x="250.8828125" y="8" width="1832.25" height="373.5249996185303"></rect><g class="cluster-label " transform="translate(1074.97265625, 8)"><g><rect class="background" style="stroke: none"></rect><text y="-10.1" style=""><tspan class="text-outer-tspan" x="0" y="-0.1em" dy="1.1em"><tspan font-style="normal" class="text-inner-tspan" font-weight="normal">Canal</tspan><tspan font-style="normal" class="text-inner-tspan" font-weight="normal"> eletrônico</tspan><tspan font-style="normal" class="text-inner-tspan" font-weight="normal"> (SNE)</tspan><tspan font-style="normal" class="text-inner-tspan" font-weight="normal"> —</tspan></tspan><tspan class="text-outer-tspan" x="0" y="1em" dy="1.1em"><tspan font-style="normal" class="text-inner-tspan" font-weight="normal">[REF-CONTRAN-931]</tspan></tspan></text></g></g></g></g><g class="edgePaths"><path d="M200.883,207.525L205.049,207.525C209.216,207.525,217.549,207.525,225.883,207.525C234.216,207.525,242.549,207.525,250.3,207.595C258.05,207.666,265.217,207.806,268.8,207.876L272.384,207.947" id="L_S0_G0_0" class=" edge-thickness-normal edge-pattern-solid edge-thickness-normal edge-pattern-solid flowchart-link" style="" marker-end="url(#d2_flowchart-v2-pointEnd)"></path><path d="M539.658,193.3L548.753,192.129C557.849,190.959,576.04,188.617,591.86,187.446C607.68,186.275,621.129,186.275,631.354,186.275C641.578,186.275,648.578,186.275,652.078,186.275L655.578,186.275" id="L_G0_A1_1" class=" edge-thickness-normal edge-pattern-solid edge-thickness-normal edge-pattern-solid flowchart-link" style="" marker-end="url(#d2_flowchart-v2-pointEnd)"></path><path d="M919.578,186.275L923.745,186.275C927.911,186.275,936.245,186.275,943.911,186.275C951.578,186.275,958.578,186.275,962.078,186.275L965.578,186.275" id="L_A1_A2_2" class=" edge-thickness-normal edge-pattern-solid edge-thickness-normal edge-pattern-solid flowchart-link" style="" marker-end="url(#d2_flowchart-v2-pointEnd)"></path><path d="M1184.134,176.512L1202.889,174.802C1221.644,173.091,1259.154,169.671,1296.656,167.96C1334.159,166.25,1371.654,166.25,1390.401,166.25L1409.148,166.25" id="L_A2_tm_sne_3" class=" edge-thickness-normal edge-pattern-solid edge-thickness-normal edge-pattern-solid flowchart-link" style="" marker-end="url(#d2_flowchart-v2-pointEnd)"></path><path d="M1605.984,166.25L1624.113,166.25C1642.242,166.25,1678.5,166.25,1715.358,166.25C1752.216,166.25,1789.674,166.25,1808.404,166.25L1827.133,166.25" id="L_tm_sne_A3_4" class=" edge-thickness-normal edge-pattern-solid edge-thickness-normal edge-pattern-solid flowchart-link" style="" marker-end="url(#d2_flowchart-v2-pointEnd)"></path><path d="M514.813,247.595L528.049,252.813C541.285,258.03,567.758,268.465,587.719,273.683C607.68,278.9,621.129,278.9,651.575,381.699C682.022,484.499,729.466,690.097,753.188,792.897L776.91,895.696" id="L_G0_B1_5" class=" edge-thickness-normal edge-pattern-solid edge-thickness-normal edge-pattern-solid flowchart-link" style="" marker-end="url(#d2_flowchart-v2-pointEnd)"></path><path d="M870.036,899.594L882.46,891.719C894.883,883.844,919.731,868.094,935.654,860.219C951.578,852.344,958.578,852.344,962.078,852.344L965.578,852.344" id="L_B1_B2_6" class=" edge-thickness-normal edge-pattern-solid edge-thickness-normal edge-pattern-solid flowchart-link" style="" marker-end="url(#d2_flowchart-v2-pointEnd)"></path><path d="M1184.134,862.107L1202.889,863.817C1221.644,865.527,1259.154,868.948,1296.007,870.739C1332.859,872.529,1369.055,872.69,1387.152,872.771L1405.25,872.851" id="L_B2_G1_7" class=" edge-thickness-normal edge-pattern-solid edge-thickness-normal edge-pattern-solid flowchart-link" style="" marker-end="url(#d2_flowchart-v2-pointEnd)"></path><path d="M1562.425,824.411L1587.814,800.754C1613.203,777.096,1663.98,729.781,1726.682,706.124C1789.383,682.466,1864.008,682.466,1925.404,682.466C1986.799,682.466,2034.966,682.466,2078.151,682.466C2121.336,682.466,2159.539,682.466,2213.342,682.466C2267.145,682.466,2336.547,682.466,2371.248,682.466L2405.949,682.466" id="L_G1_B3_8" class=" edge-thickness-normal edge-pattern-solid edge-thickness-normal edge-pattern-solid flowchart-link" style="" marker-end="url(#d2_flowchart-v2-pointEnd)"></path><path d="M1610.883,872.869L1628.195,872.785C1645.508,872.702,1680.133,872.535,1734.758,872.452C1789.383,872.369,1864.008,872.369,1925.404,872.369C1986.799,872.369,2034.966,872.369,2078.151,872.369C2121.336,872.369,2159.539,872.369,2200.826,872.369C2242.112,872.369,2286.482,872.369,2308.667,872.369L2330.852,872.369" id="L_G1_B4_9" class=" edge-thickness-normal edge-pattern-solid edge-thickness-normal edge-pattern-solid flowchart-link" style="" marker-end="url(#d2_flowchart-v2-pointEnd)"></path><path d="M1574.901,908.85L1598.211,921.749C1621.52,934.648,1668.139,960.446,1713.672,981.598C1759.204,1002.75,1803.651,1019.256,1825.874,1027.509L1848.097,1035.762" id="L_G1_B5_10" class=" edge-thickness-normal edge-pattern-solid edge-thickness-normal edge-pattern-solid flowchart-link" style="" marker-end="url(#d2_flowchart-v2-pointEnd)"></path><path d="M1843.96,1093.696L1822.426,1099.096C1800.893,1104.495,1757.825,1115.294,1702.093,1120.694C1646.361,1126.094,1577.964,1126.094,1508.281,1126.094C1438.599,1126.094,1367.632,1126.094,1295.55,1126.094C1223.469,1126.094,1150.273,1126.094,1091.592,1126.094C1032.911,1126.094,988.745,1126.094,948.777,1105.843C908.808,1085.593,873.039,1045.092,855.154,1024.842L837.269,1004.592" id="L_B5_B1_11" class=" edge-thickness-normal edge-pattern-solid edge-thickness-normal edge-pattern-solid flowchart-link" style="" marker-end="url(#d2_flowchart-v2-pointEnd)"></path><path d="M2058.633,1069.369L2062.716,1069.285C2066.799,1069.202,2074.966,1069.035,2098.151,1068.952C2121.336,1068.869,2159.539,1068.869,2197.076,1068.869C2234.612,1068.869,2271.482,1068.869,2289.917,1068.869L2308.352,1068.869" id="L_B5_C1_12" class=" edge-thickness-normal edge-pattern-solid edge-thickness-normal edge-pattern-solid flowchart-link" style="" marker-end="url(#d2_flowchart-v2-pointEnd)"></path><path d="M2572.352,1068.869L2576.518,1068.869C2580.685,1068.869,2589.018,1068.869,2597.352,1068.869C2605.685,1068.869,2614.018,1068.869,2622.352,1068.869C2630.685,1068.869,2639.018,1068.869,2646.685,1068.869C2654.352,1068.869,2661.352,1068.869,2664.852,1068.869L2668.352,1068.869" id="L_C1_C2_13" class=" edge-thickness-normal edge-pattern-solid edge-thickness-normal edge-pattern-solid flowchart-link" style="" marker-end="url(#d2_flowchart-v2-pointEnd)"></path><path d="M2046.133,166.25L2052.299,166.25C2058.466,166.25,2070.799,166.25,2096.068,166.25C2121.336,166.25,2159.539,166.25,2219.409,166.25C2279.279,166.25,2360.815,166.25,2427.417,166.25C2494.018,166.25,2545.685,166.25,2575.685,166.25C2605.685,166.25,2614.018,166.25,2622.352,166.25C2630.685,166.25,2639.018,166.25,2664.758,166.25C2690.499,166.25,2733.646,166.25,2776.793,166.25C2819.94,166.25,2863.087,166.25,2888.827,166.25C2914.568,166.25,2922.901,166.25,2945.539,259.478C2968.178,352.706,3005.121,539.162,3023.592,632.39L3042.064,725.618" id="L_A3_S1_14" class=" edge-thickness-normal edge-pattern-solid edge-thickness-normal edge-pattern-solid flowchart-link" style="" marker-end="url(#d2_flowchart-v2-pointEnd)"></path><path d="M2474.754,682.466L2495.187,682.466C2515.62,682.466,2556.486,682.466,2581.085,682.466C2605.685,682.466,2614.018,682.466,2622.352,682.466C2630.685,682.466,2639.018,682.466,2664.758,682.466C2690.499,682.466,2733.646,682.466,2776.793,682.466C2819.94,682.466,2863.087,682.466,2888.827,682.466C2914.568,682.466,2922.901,682.466,2936.964,693.858C2951.027,705.25,2970.819,728.034,2980.715,739.425L2990.611,750.817" id="L_B3_S1_15" class=" edge-thickness-normal edge-pattern-solid edge-thickness-normal edge-pattern-solid flowchart-link" style="" marker-end="url(#d2_flowchart-v2-pointEnd)"></path><path d="M2549.852,872.369L2557.768,872.369C2565.685,872.369,2581.518,872.369,2593.602,872.369C2605.685,872.369,2614.018,872.369,2622.352,872.369C2630.685,872.369,2639.018,872.369,2664.758,872.369C2690.499,872.369,2733.646,872.369,2776.793,872.369C2819.94,872.369,2863.087,872.369,2888.827,872.369C2914.568,872.369,2922.901,872.369,2931.266,871.185C2939.63,870,2948.026,867.632,2952.224,866.448L2956.422,865.263" id="L_B4_S1_16" class=" edge-thickness-normal edge-pattern-solid edge-thickness-normal edge-pattern-solid flowchart-link" style="" marker-end="url(#d2_flowchart-v2-pointEnd)"></path><path d="M2881.234,1068.869L2885.401,1068.869C2889.568,1068.869,2897.901,1068.869,2906.234,1068.869C2914.568,1068.869,2922.901,1068.869,2939.991,1046.058C2957.081,1023.247,2982.927,977.626,2995.85,954.815L3008.773,932.004" id="L_C2_S1_17" class=" edge-thickness-normal edge-pattern-solid edge-thickness-normal edge-pattern-solid flowchart-link" style="" marker-end="url(#d2_flowchart-v2-pointEnd)"></path><path d="M1179.902,217.637L1199.362,223.572C1218.822,229.508,1257.743,241.379,1303.312,277.364C1348.88,313.35,1401.097,373.449,1427.205,403.499L1453.313,433.549" id="L_A2_S2_18" class=" edge-thickness-normal edge-pattern-dotted edge-thickness-normal edge-pattern-solid flowchart-link" style="" marker-end="url(#d2_flowchart-v2-pointEnd)"></path><path d="M1166.596,792.822L1188.274,778.409C1209.952,763.995,1253.308,735.167,1300.246,696.07C1347.184,656.972,1397.703,607.606,1422.963,582.922L1448.222,558.239" id="L_B2_S2_19" class=" edge-thickness-normal edge-pattern-dotted edge-thickness-normal edge-pattern-solid flowchart-link" style="" marker-end="url(#d2_flowchart-v2-pointEnd)"></path></g><g class="edgeLabels"><g><rect class="background" style="stroke: none"></rect></g><g><rect class="background" style="stroke: none"></rect></g><g><rect class="background" style="stroke: none"></rect></g><g><rect class="background" style="stroke: none"></rect></g><g><rect class="background" style="stroke: none"></rect></g><g><rect class="background" style="stroke: none"></rect></g><g><rect class="background" style="stroke: none"></rect></g><g><rect class="background" style="stroke: none"></rect></g><g><rect class="background" style="stroke: none"></rect></g><g><rect class="background" style="stroke: none"></rect></g><g><rect class="background" style="stroke: none"></rect></g><g class="edgeLabel"><g class="label" transform="translate(0, 0)"><text y="-10.1"><tspan class="text-outer-tspan" x="0" y="-0.1em" dy="1.1em"></tspan></text></g></g><g class="edgeLabel" transform="translate(594.23046875, 186.27499961853027)"><g class="label" transform="translate(-14.44140625, -11.25)"><g><rect class="background" style="" x="-2" y="-1" width="28.8828125" height="22.5"></rect><text y="-10.1" style=""><tspan class="text-outer-tspan" x="0" y="-0.1em" dy="1.1em"><tspan font-style="normal" class="text-inner-tspan" font-weight="normal">sim</tspan></tspan></text></g></g></g><g class="edgeLabel"><g class="label" transform="translate(0, 0)"><text y="-10.1"><tspan class="text-outer-tspan" x="0" y="-0.1em" dy="1.1em"></tspan></text></g></g><g class="edgeLabel"><g class="label" transform="translate(0, 0)"><text y="-10.1"><tspan class="text-outer-tspan" x="0" y="-0.1em" dy="1.1em"></tspan></text></g></g><g class="edgeLabel"><g class="label" transform="translate(0, 0)"><text y="-10.1"><tspan class="text-outer-tspan" x="0" y="-0.1em" dy="1.1em"></tspan></text></g></g><g class="edgeLabel" transform="translate(594.23046875, 278.8999996185303)"><g class="label" transform="translate(-15.34765625, -11.25)"><g><rect class="background" style="" x="-2" y="-1" width="30.6953125" height="22.5"></rect><text y="-10.1" style=""><tspan class="text-outer-tspan" x="0" y="-0.1em" dy="1.1em"><tspan font-style="normal" class="text-inner-tspan" font-weight="normal">não</tspan></tspan></text></g></g></g><g class="edgeLabel"><g class="label" transform="translate(0, 0)"><text y="-10.1"><tspan class="text-outer-tspan" x="0" y="-0.1em" dy="1.1em"></tspan></text></g></g><g class="edgeLabel"><g class="label" transform="translate(0, 0)"><text y="-10.1"><tspan class="text-outer-tspan" x="0" y="-0.1em" dy="1.1em"></tspan></text></g></g><g class="edgeLabel" transform="translate(1938.6328125, 682.4664058685303)"><g class="label" transform="translate(-33.58203125, -11.26953125)"><g><rect class="background" style="" x="-2" y="-1" width="67.1640625" height="22.5390625"></rect><text y="-10.1" style=""><tspan class="text-outer-tspan" x="0" y="-0.1em" dy="1.1em"><tspan font-style="normal" class="text-inner-tspan" font-weight="normal">entregue</tspan></tspan></text></g></g></g><g class="edgeLabel" transform="translate(1938.6328125, 872.3687496185303)"><g class="label" transform="translate(-88.7265625, -20.049999237060547)"><g><rect class="background" style="" x="-2" y="-1" width="177.453125" height="40.099998474121094"></rect><text y="-10.1" style=""><tspan class="text-outer-tspan" x="0" y="-0.1em" dy="1.1em"><tspan font-style="normal" class="text-inner-tspan" font-weight="normal">devolvida:</tspan><tspan font-style="normal" class="text-inner-tspan" font-weight="normal"> endereço</tspan></tspan><tspan class="text-outer-tspan" x="0" y="1em" dy="1.1em"><tspan font-style="normal" class="text-inner-tspan" font-weight="normal">desatualizado</tspan><tspan font-style="normal" class="text-inner-tspan" font-weight="normal"> ou</tspan><tspan font-style="normal" class="text-inner-tspan" font-weight="normal"> recusa</tspan></tspan></text></g></g></g><g class="edgeLabel" transform="translate(1714.7578125, 986.2437496185303)"><g class="label" transform="translate(-79.375, -11.25)"><g><rect class="background" style="" x="-2" y="-1" width="158.75" height="22.5"></rect><text y="-10.1" style=""><tspan class="text-outer-tspan" x="0" y="-0.1em" dy="1.1em"><tspan font-style="normal" class="text-inner-tspan" font-weight="normal">falha</tspan><tspan font-style="normal" class="text-inner-tspan" font-weight="normal"> por</tspan><tspan font-style="normal" class="text-inner-tspan" font-weight="normal"> outro</tspan><tspan font-style="normal" class="text-inner-tspan" font-weight="normal"> motivo</tspan></tspan></text></g></g></g><g class="edgeLabel" transform="translate(1296.6640625, 1126.09375)"><g class="label" transform="translate(-87.0859375, -20.049999237060547)"><g><rect class="background" style="" x="-2" y="-1" width="174.171875" height="40.099998474121094"></rect><text y="-10.1" style=""><tspan class="text-outer-tspan" x="0" y="-0.1em" dy="1.1em"><tspan font-style="normal" class="text-inner-tspan" font-weight="normal">sim</tspan><tspan font-style="normal" class="text-inner-tspan" font-weight="normal"> e</tspan><tspan font-style="normal" class="text-inner-tspan" font-weight="normal"> T-NA</tspan><tspan font-style="normal" class="text-inner-tspan" font-weight="normal"> /</tspan><tspan font-style="normal" class="text-inner-tspan" font-weight="normal"> T-DEC</tspan><tspan font-style="normal" class="text-inner-tspan" font-weight="normal"> não</tspan></tspan><tspan class="text-outer-tspan" x="0" y="1em" dy="1.1em"><tspan font-style="normal" class="text-inner-tspan" font-weight="normal">vencidos</tspan></tspan></text></g></g></g><g class="edgeLabel" transform="translate(2197.7421875, 1068.8687496185303)"><g class="label" transform="translate(-89.609375, -20.069530487060547)"><g><rect class="background" style="" x="-2" y="-1" width="179.21875" height="40.139060974121094"></rect><text y="-10.1" style=""><tspan class="text-outer-tspan" x="0" y="-0.1em" dy="1.1em"><tspan font-style="normal" class="text-inner-tspan" font-weight="normal">tentativas</tspan><tspan font-style="normal" class="text-inner-tspan" font-weight="normal"> postal/pessoal</tspan></tspan><tspan class="text-outer-tspan" x="0" y="1em" dy="1.1em"><tspan font-style="normal" class="text-inner-tspan" font-weight="normal">esgotadas</tspan></tspan></text></g></g></g><g class="edgeLabel"><g class="label" transform="translate(0, 0)"><text y="-10.1"><tspan class="text-outer-tspan" x="0" y="-0.1em" dy="1.1em"></tspan></text></g></g><g class="edgeLabel"><g class="label" transform="translate(0, 0)"><text y="-10.1"><tspan class="text-outer-tspan" x="0" y="-0.1em" dy="1.1em"></tspan></text></g></g><g class="edgeLabel"><g class="label" transform="translate(0, 0)"><text y="-10.1"><tspan class="text-outer-tspan" x="0" y="-0.1em" dy="1.1em"></tspan></text></g></g><g class="edgeLabel"><g class="label" transform="translate(0, 0)"><text y="-10.1"><tspan class="text-outer-tspan" x="0" y="-0.1em" dy="1.1em"></tspan></text></g></g><g class="edgeLabel"><g class="label" transform="translate(0, 0)"><text y="-10.1"><tspan class="text-outer-tspan" x="0" y="-0.1em" dy="1.1em"></tspan></text></g></g><g class="edgeLabel" transform="translate(1296.6640625, 253.25)"><g class="label" transform="translate(-85.34375, -20.049999237060547)"><g><rect class="background" style="" x="-2" y="-1" width="170.6875" height="40.099998474121094"></rect><text y="-10.1" style=""><tspan class="text-outer-tspan" x="0" y="-0.1em" dy="1.1em"><tspan font-style="normal" class="text-inner-tspan" font-weight="normal">marco</tspan><tspan font-style="normal" class="text-inner-tspan" font-weight="normal"> do</tspan><tspan font-style="normal" class="text-inner-tspan" font-weight="normal"> órgão</tspan><tspan font-style="normal" class="text-inner-tspan" font-weight="normal"> (T-NA</tspan><tspan font-style="normal" class="text-inner-tspan" font-weight="normal"> /</tspan></tspan><tspan class="text-outer-tspan" x="0" y="1em" dy="1.1em"><tspan font-style="normal" class="text-inner-tspan" font-weight="normal">T-DEC)</tspan></tspan></text></g></g></g><g class="edgeLabel" transform="translate(1296.6640625, 706.3390617370605)"><g class="label" transform="translate(-85.34375, -20.049999237060547)"><g><rect class="background" style="" x="-2" y="-1" width="170.6875" height="40.099998474121094"></rect><text y="-10.1" style=""><tspan class="text-outer-tspan" x="0" y="-0.1em" dy="1.1em"><tspan font-style="normal" class="text-inner-tspan" font-weight="normal">marco</tspan><tspan font-style="normal" class="text-inner-tspan" font-weight="normal"> do</tspan><tspan font-style="normal" class="text-inner-tspan" font-weight="normal"> órgão</tspan><tspan font-style="normal" class="text-inner-tspan" font-weight="normal"> (T-NA</tspan><tspan font-style="normal" class="text-inner-tspan" font-weight="normal"> /</tspan></tspan><tspan class="text-outer-tspan" x="0" y="1em" dy="1.1em"><tspan font-style="normal" class="text-inner-tspan" font-weight="normal">T-DEC)</tspan></tspan></text></g></g></g></g><g class="nodes"><g class="node default  " id="flowchart-S0-105" transform="translate(104.44140625, 207.52499961853027)"><circle class="basic label-container" style="" r="96.44140625" cx="0" cy="0"></circle><g class="label" style="" transform="translate(-88.94140625, -12)"><rect></rect><foreignObject width="177.8828125" height="24"><div xmlns="http://www.w3.org/1999/xhtml" style="display: table-cell; white-space: nowrap; line-height: 1.5; max-width: 200px; text-align: center;"><span class="nodeLabel "><p>solicitação de notificação</p></span></div></foreignObject></g></g><g class="node default  " id="flowchart-G0-106" transform="translate(414.8828125, 207.52499961853027)"><polygon points="139,0 278,-139 139,-278 0,-139" class="label-container" transform="translate(-139,139)"></polygon><g class="label" style="" transform="translate(-100, -24)"><rect></rect><foreignObject width="200" height="48"><div xmlns="http://www.w3.org/1999/xhtml" style="display: table; white-space: break-spaces; line-height: 1.5; max-width: 200px; text-align: center; width: 200px;"><span class="nodeLabel "><p>destinatário aderente ao SNE?</p></span></div></foreignObject></g></g><g class="node default  " id="flowchart-A1-108" transform="translate(789.578125, 186.27499961853027)"><rect class="basic label-container" style="" x="-130" y="-51" width="260" height="102"></rect><g class="label" style="" transform="translate(-100, -36)"><rect></rect><foreignObject width="200" height="72"><div xmlns="http://www.w3.org/1999/xhtml" style="display: table; white-space: break-spaces; line-height: 1.5; max-width: 200px; text-align: center; width: 200px;"><span class="nodeLabel "><p>Disponibilizar no SNE + enviar mensagem (e-mail/celular)</p></span></div></foreignObject></g></g><g class="node default  " id="flowchart-A2-110" transform="translate(1077.078125, 186.27499961853027)"><circle class="basic label-container" style="" r="107.5" cx="0" cy="0"></circle><g class="label" style="" transform="translate(-100, -24)"><rect></rect><foreignObject width="200" height="48"><div xmlns="http://www.w3.org/1999/xhtml" style="display: table; white-space: break-spaces; line-height: 1.5; max-width: 200px; text-align: center; width: 200px;"><span class="nodeLabel "><p>expedida = disponibilização - 931 art.5º</p></span></div></foreignObject></g></g><g class="node default  " id="flowchart-tm_sne-112" transform="translate(1509.56640625, 166.25)"><circle class="basic label-container" style="" r="96.41796875" cx="0" cy="0"></circle><g class="label" style="" transform="translate(-88.91796875, -12)"><rect></rect><foreignObject width="177.8359375" height="24"><div xmlns="http://www.w3.org/1999/xhtml" style="display: table-cell; white-space: nowrap; line-height: 1.5; max-width: 200px; text-align: center;"><span class="nodeLabel "><p>T-SNE-CIENCIA: 30 dias</p></span></div></foreignObject></g></g><g class="node default  " id="flowchart-A3-114" transform="translate(1938.6328125, 166.25)"><circle class="basic label-container" style="" r="107.5" cx="0" cy="0"></circle><g class="label" style="" transform="translate(-100, -24)"><rect></rect><foreignObject width="200" height="48"><div xmlns="http://www.w3.org/1999/xhtml" style="display: table; white-space: break-spaces; line-height: 1.5; max-width: 200px; text-align: center; width: 200px;"><span class="nodeLabel "><p>ciência ficta - CTB 282-A §2º</p></span></div></foreignObject></g></g><g class="node default  " id="flowchart-B1-116" transform="translate(789.578125, 950.59375)"><rect class="basic label-container" style="" x="-130" y="-51" width="260" height="102"></rect><g class="label" style="" transform="translate(-100, -36)"><rect></rect><foreignObject width="200" height="72"><div xmlns="http://www.w3.org/1999/xhtml" style="display: table; white-space: break-spaces; line-height: 1.5; max-width: 200px; text-align: center; width: 200px;"><span class="nodeLabel "><p>Gerar documento e entregar à empresa de remessa</p></span></div></foreignObject></g></g><g class="node default  " id="flowchart-B2-118" transform="translate(1077.078125, 852.34375)"><circle class="basic label-container" style="" r="107.5" cx="0" cy="0"></circle><g class="label" style="" transform="translate(-100, -24)"><rect></rect><foreignObject width="200" height="48"><div xmlns="http://www.w3.org/1999/xhtml" style="display: table; white-space: break-spaces; line-height: 1.5; max-width: 200px; text-align: center; width: 200px;"><span class="nodeLabel "><p>expedida = entrega à ECT - 918 art.30 I</p></span></div></foreignObject></g></g><g class="node default  " id="flowchart-G1-120" transform="translate(1509.56640625, 872.3687496185303)"><polygon points="100.81640625,0 201.6328125,-100.81640625 100.81640625,-201.6328125 0,-100.81640625" class="label-container" transform="translate(-100.81640625,100.81640625)"></polygon><g class="label" style="" transform="translate(-73.81640625, -12)"><rect></rect><foreignObject width="147.6328125" height="24"><div xmlns="http://www.w3.org/1999/xhtml" style="display: table-cell; white-space: nowrap; line-height: 1.5; max-width: 200px; text-align: center;"><span class="nodeLabel "><p>retorno da remessa?</p></span></div></foreignObject></g></g><g class="node default  " id="flowchart-B3-122" transform="translate(2442.3515625, 682.4664058685303)"><circle class="basic label-container" style="" r="32.40234375" cx="0" cy="0"></circle><g class="label" style="" transform="translate(-24.90234375, -12)"><rect></rect><foreignObject width="49.8046875" height="24"><div xmlns="http://www.w3.org/1999/xhtml" style="display: table-cell; white-space: nowrap; line-height: 1.5; max-width: 200px; text-align: center;"><span class="nodeLabel "><p>ciência</p></span></div></foreignObject></g></g><g class="node default  " id="flowchart-B4-124" transform="translate(2442.3515625, 872.3687496185303)"><circle class="basic label-container" style="" r="107.5" cx="0" cy="0"></circle><g class="label" style="" transform="translate(-100, -24)"><rect></rect><foreignObject width="200" height="48"><div xmlns="http://www.w3.org/1999/xhtml" style="display: table; white-space: break-spaces; line-height: 1.5; max-width: 200px; text-align: center; width: 200px;"><span class="nodeLabel "><p>vale como notificada - CTB 282 §1º</p></span></div></foreignObject></g></g><g class="node default  " id="flowchart-B5-126" transform="translate(1938.6328125, 1068.8687496185303)"><polygon points="119.5,0 239,-119.5 119.5,-239 0,-119.5" class="label-container" transform="translate(-119.5,119.5)"></polygon><g class="label" style="" transform="translate(-92.5, -12)"><rect></rect><foreignObject width="185" height="24"><div xmlns="http://www.w3.org/1999/xhtml" style="display: table-cell; white-space: nowrap; line-height: 1.5; max-width: 200px; text-align: center;"><span class="nodeLabel "><p>refazer o ato? - 918 art.31</p></span></div></foreignObject></g></g><g class="node default  " id="flowchart-C1-130" transform="translate(2442.3515625, 1068.8687496185303)"><rect class="basic label-container" style="" x="-130" y="-39" width="260" height="78"></rect><g class="label" style="" transform="translate(-100, -24)"><rect></rect><foreignObject width="200" height="48"><div xmlns="http://www.w3.org/1999/xhtml" style="display: table; white-space: break-spaces; line-height: 1.5; max-width: 200px; text-align: center; width: 200px;"><span class="nodeLabel "><p>Publicar edital no diário oficial + íntegra no sítio</p></span></div></foreignObject></g></g><g class="node default  " id="flowchart-C2-132" transform="translate(2776.79296875, 1068.8687496185303)"><circle class="basic label-container" style="" r="104.44140625" cx="0" cy="0"></circle><g class="label" style="" transform="translate(-96.94140625, -12)"><rect></rect><foreignObject width="193.8828125" height="24"><div xmlns="http://www.w3.org/1999/xhtml" style="display: table-cell; white-space: nowrap; line-height: 1.5; max-width: 200px; text-align: center;"><span class="nodeLabel "><p>publicada - marco do prazo</p></span></div></foreignObject></g></g><g class="node default  " id="flowchart-S1-134" transform="translate(3063.734375, 834.9914054870605)"><circle class="basic label-container" style="" r="107.5" cx="0" cy="0"></circle><g class="label" style="" transform="translate(-100, -24)"><rect></rect><foreignObject width="200" height="48"><div xmlns="http://www.w3.org/1999/xhtml" style="display: table; white-space: break-spaces; line-height: 1.5; max-width: 200px; text-align: center; width: 200px;"><span class="nodeLabel "><p>notificação eficaz - inicia o timer do administrado</p></span></div></foreignObject></g></g><g class="node default  " id="flowchart-S2-142" transform="translate(1509.56640625, 498.2945308685303)"><circle class="basic label-container" style="" r="81.76953125" cx="0" cy="0"></circle><g class="label" style="" transform="translate(-74.26953125, -12)"><rect></rect><foreignObject width="148.5390625" height="24"><div xmlns="http://www.w3.org/1999/xhtml" style="display: table-cell; white-space: nowrap; line-height: 1.5; max-width: 200px; text-align: center;"><span class="nodeLabel "><p>expedição registrada</p></span></div></foreignObject></g></g></g></g></g></svg>