<?xml version="1.0" encoding="UTF-8"?>
<svg id="r2" width="100%" xmlns="http://www.w3.org/2000/svg" class="flowchart" style="max-width: 2881.78125px;" viewBox="0 0 2881.78125 454.375" role="graphics-document document" aria-roledescription="flowchart-v2"><rect data-bg="1" x="-2" y="-2" width="100%" height="100%" fill="#ffffff"/><style>#r2{font-family:Helvetica,Arial,sans-serif;font-size:16px;fill:#000000;}#r2 .error-icon{fill:#552222;}#r2 .error-text{fill:#552222;stroke:#552222;}#r2 .edge-thickness-normal{stroke-width:1px;}#r2 .edge-thickness-thick{stroke-width:3.5px;}#r2 .edge-pattern-solid{stroke-dasharray:0;}#r2 .edge-thickness-invisible{stroke-width:0;fill:none;}#r2 .edge-pattern-dashed{stroke-dasharray:3;}#r2 .edge-pattern-dotted{stroke-dasharray:2;}#r2 .marker{fill:#666;stroke:#666;}#r2 .marker.cross{stroke:#666;}#r2 svg{font-family:Helvetica,Arial,sans-serif;font-size:16px;}#r2 p{margin:0;}#r2 .label{font-family:Helvetica,Arial,sans-serif;color:#000000;}#r2 .cluster-label text{fill:#333;}#r2 .cluster-label span{color:#333;}#r2 .cluster-label span p{background-color:transparent;}#r2 .label text,#r2 span{fill:#000000;color:#000000;}#r2 .node rect,#r2 .node circle,#r2 .node ellipse,#r2 .node polygon,#r2 .node path{fill:#eee;stroke:#999;stroke-width:1px;}#r2 .rough-node .label text,#r2 .node .label text,#r2 .image-shape .label,#r2 .icon-shape .label{text-anchor:middle;}#r2 .node .katex path{fill:#000;stroke:#000;stroke-width:1px;}#r2 .rough-node .label,#r2 .node .label,#r2 .image-shape .label,#r2 .icon-shape .label{text-align:center;}#r2 .node.clickable{cursor:pointer;}#r2 .root .anchor path{fill:#666!important;stroke-width:0;stroke:#666;}#r2 .arrowheadPath{fill:#333333;}#r2 .edgePath .path{stroke:#666;stroke-width:2.0px;}#r2 .flowchart-link{stroke:#666;fill:none;}#r2 .edgeLabel{background-color:white;text-align:center;}#r2 .edgeLabel p{background-color:white;}#r2 .edgeLabel rect{opacity:0.5;background-color:white;fill:white;}#r2 .labelBkg{background-color:rgba(255, 255, 255, 0.5);}#r2 .cluster rect{fill:hsl(0, 0%, 98.9215686275%);stroke:#707070;stroke-width:1px;}#r2 .cluster text{fill:#333;}#r2 .cluster span{color:#333;}#r2 div.mermaidTooltip{position:absolute;text-align:center;max-width:200px;padding:2px;font-family:Helvetica,Arial,sans-serif;font-size:12px;background:hsl(-160, 0%, 93.3333333333%);border:1px solid #707070;border-radius:2px;pointer-events:none;z-index:100;}#r2 .flowchartTitleText{text-anchor:middle;font-size:18px;fill:#000000;}#r2 rect.text{fill:none;stroke-width:0;}#r2 .icon-shape,#r2 .image-shape{background-color:white;text-align:center;}#r2 .icon-shape p,#r2 .image-shape p{background-color:white;padding:2px;}#r2 .icon-shape rect,#r2 .image-shape rect{opacity:0.5;background-color:white;fill:white;}#r2 :root{--mermaid-font-family:Helvetica,Arial,sans-serif;}</style><g><marker id="r2_flowchart-v2-pointEnd" class="marker flowchart-v2" viewBox="0 0 10 10" refX="5" refY="5" markerUnits="userSpaceOnUse" markerWidth="8" markerHeight="8" orient="auto"><path d="M 0 0 L 10 5 L 0 10 z" class="arrowMarkerPath" style="stroke-width: 1; stroke-dasharray: 1, 0;"></path></marker><marker id="r2_flowchart-v2-pointStart" class="marker flowchart-v2" viewBox="0 0 10 10" refX="4.5" refY="5" markerUnits="userSpaceOnUse" markerWidth="8" markerHeight="8" orient="auto"><path d="M 0 5 L 10 10 L 10 0 z" class="arrowMarkerPath" style="stroke-width: 1; stroke-dasharray: 1, 0;"></path></marker><marker id="r2_flowchart-v2-circleEnd" class="marker flowchart-v2" viewBox="0 0 10 10" refX="11" refY="5" markerUnits="userSpaceOnUse" markerWidth="11" markerHeight="11" orient="auto"><circle cx="5" cy="5" r="5" class="arrowMarkerPath" style="stroke-width: 1; stroke-dasharray: 1, 0;"></circle></marker><marker id="r2_flowchart-v2-circleStart" class="marker flowchart-v2" viewBox="0 0 10 10" refX="-1" refY="5" markerUnits="userSpaceOnUse" markerWidth="11" markerHeight="11" orient="auto"><circle cx="5" cy="5" r="5" class="arrowMarkerPath" style="stroke-width: 1; stroke-dasharray: 1, 0;"></circle></marker><marker id="r2_flowchart-v2-crossEnd" class="marker cross flowchart-v2" viewBox="0 0 11 11" refX="12" refY="5.2" markerUnits="userSpaceOnUse" markerWidth="11" markerHeight="11" orient="auto"><path d="M 1,1 l 9,9 M 10,1 l -9,9" class="arrowMarkerPath" style="stroke-width: 2; stroke-dasharray: 1, 0;"></path></marker><marker id="r2_flowchart-v2-crossStart" class="marker cross flowchart-v2" viewBox="0 0 11 11" refX="-1" refY="5.2" markerUnits="userSpaceOnUse" markerWidth="11" markerHeight="11" orient="auto"><path d="M 1,1 l 9,9 M 10,1 l -9,9" class="arrowMarkerPath" style="stroke-width: 2; stroke-dasharray: 1, 0;"></path></marker><g class="root"><g class="clusters"></g><g class="edgePaths"><path d="M228.862,201.375L239.552,207.375C250.241,213.375,271.621,225.375,285.894,231.445C300.167,237.516,307.334,237.656,310.917,237.726L314.501,237.797" id="L_q_claim_0" class=" edge-thickness-normal edge-pattern-solid edge-thickness-normal edge-pattern-solid flowchart-link" style="" marker-end="url(#r2_flowchart-v2-pointEnd)"></path><path d="M557.478,276.897L570.623,281.977C583.768,287.056,610.058,297.216,629.261,302.295C648.464,307.375,660.579,307.375,666.637,307.375L672.695,307.375" id="L_claim_take_1" class=" edge-thickness-normal edge-pattern-solid edge-thickness-normal edge-pattern-solid flowchart-link" style="" marker-end="url(#r2_flowchart-v2-pointEnd)"></path><path d="M557.478,198.853L570.623,193.607C583.768,188.36,610.058,177.868,629.261,172.621C648.464,167.375,660.579,167.375,666.637,167.375L672.695,167.375" id="L_claim_wait_2" class=" edge-thickness-normal edge-pattern-solid edge-thickness-normal edge-pattern-solid flowchart-link" style="" marker-end="url(#r2_flowchart-v2-pointEnd)"></path><path d="M936.695,307.375L940.862,307.375C945.029,307.375,953.362,307.375,961.112,307.445C968.862,307.516,976.029,307.656,979.613,307.726L983.196,307.797" id="L_take_imp_3" class=" edge-thickness-normal edge-pattern-solid edge-thickness-normal edge-pattern-solid flowchart-link" style="" marker-end="url(#r2_flowchart-v2-pointEnd)"></path><path d="M1218.28,260.959L1232.74,253.466C1247.201,245.973,1276.122,230.986,1309.261,206.278C1342.4,181.57,1379.757,147.141,1398.435,129.926L1417.113,112.711" id="L_imp_back_4" class=" edge-thickness-normal edge-pattern-solid edge-thickness-normal edge-pattern-solid flowchart-link" style="" marker-end="url(#r2_flowchart-v2-pointEnd)"></path><path d="M1345.391,47.076L1338.666,46.459C1331.941,45.842,1318.492,44.609,1281.876,43.992C1245.26,43.375,1185.478,43.375,1128.253,43.375C1071.029,43.375,1016.362,43.375,963.195,43.375C910.029,43.375,858.362,43.375,804.137,43.375C749.913,43.375,693.13,43.375,634.848,43.375C576.565,43.375,516.783,43.375,459.558,43.375C402.333,43.375,347.667,43.375,307.362,52.33C267.057,61.284,241.114,79.193,228.142,88.148L215.17,97.103" id="L_back_q_5" class=" edge-thickness-normal edge-pattern-solid edge-thickness-normal edge-pattern-solid flowchart-link" style="" marker-end="url(#r2_flowchart-v2-pointEnd)"></path><path d="M1250.471,322.6L1259.566,323.604C1268.661,324.608,1286.852,326.617,1302.006,327.621C1317.159,328.625,1329.275,328.625,1335.333,328.625L1341.391,328.625" id="L_imp_work_6" class=" edge-thickness-normal edge-pattern-solid edge-thickness-normal edge-pattern-solid flowchart-link" style="" marker-end="url(#r2_flowchart-v2-pointEnd)"></path><path d="M1605.391,336.623L1626.122,337.898C1646.853,339.174,1688.315,341.725,1729.112,341.765C1769.909,341.806,1810.04,339.337,1830.106,338.103L1850.172,336.868" id="L_work_sig_7" class=" edge-thickness-normal edge-pattern-solid edge-thickness-normal edge-pattern-solid flowchart-link" style="" marker-end="url(#r2_flowchart-v2-pointEnd)"></path><path d="M2114.164,328.625L2122.518,328.625C2130.872,328.625,2147.581,328.625,2163.622,328.625C2179.664,328.625,2195.039,328.625,2202.727,328.625L2210.414,328.625" id="L_sig_done_8" class=" edge-thickness-normal edge-pattern-solid edge-thickness-normal edge-pattern-solid flowchart-link" style="" marker-end="url(#r2_flowchart-v2-pointEnd)"></path><path d="M1854.164,320.627L1833.433,319.352C1812.702,318.076,1771.24,315.525,1730.443,315.485C1689.646,315.444,1649.514,317.913,1629.449,319.147L1609.383,320.382" id="L_sig_work_9" class=" edge-thickness-normal edge-pattern-solid edge-thickness-normal edge-pattern-solid flowchart-link" style="" marker-end="url(#r2_flowchart-v2-pointEnd)"></path><path d="M2474.414,328.625L2486.028,328.625C2497.642,328.625,2520.87,328.625,2543.431,328.625C2565.992,328.625,2587.887,328.625,2598.834,328.625L2609.781,328.625" id="L_done_qa_10" class=" edge-thickness-normal edge-pattern-dotted edge-thickness-normal edge-pattern-solid flowchart-link" style="" marker-end="url(#r2_flowchart-v2-pointEnd)"></path></g><g class="edgeLabels"><g><rect class="background" style="stroke: none"></rect></g><g><rect class="background" style="stroke: none"></rect></g><g><rect class="background" style="stroke: none"></rect></g><g><rect class="background" style="stroke: none"></rect></g><g class="edgeLabel"><g class="label" transform="translate(0, 0)"><text y="-10.1"><tspan class="text-outer-tspan" x="0" y="-0.1em" dy="1.1em"></tspan></text></g></g><g class="edgeLabel" transform="translate(636.34765625, 307.375)"><g class="label" transform="translate(-14.44140625, -11.25)"><g><rect class="background" style="" x="-2" y="-1" width="28.8828125" height="22.5"></rect><text y="-10.1" style=""><tspan class="text-outer-tspan" x="0" y="-0.1em" dy="1.1em"><tspan font-style="normal" class="text-inner-tspan" font-weight="normal">sim</tspan></tspan></text></g></g></g><g class="edgeLabel" transform="translate(636.34765625, 167.375)"><g class="label" transform="translate(-15.34765625, -11.25)"><g><rect class="background" style="" x="-2" y="-1" width="30.6953125" height="22.5"></rect><text y="-10.1" style=""><tspan class="text-outer-tspan" x="0" y="-0.1em" dy="1.1em"><tspan font-style="normal" class="text-inner-tspan" font-weight="normal">não</tspan></tspan></text></g></g></g><g class="edgeLabel"><g class="label" transform="translate(0, 0)"><text y="-10.1"><tspan class="text-outer-tspan" x="0" y="-0.1em" dy="1.1em"></tspan></text></g></g><g class="edgeLabel" transform="translate(1305.04296875, 216)"><g class="label" transform="translate(-14.44140625, -11.25)"><g><rect class="background" style="" x="-2" y="-1" width="28.8828125" height="22.5"></rect><text y="-10.1" style=""><tspan class="text-outer-tspan" x="0" y="-0.1em" dy="1.1em"><tspan font-style="normal" class="text-inner-tspan" font-weight="normal">sim</tspan></tspan></text></g></g></g><g class="edgeLabel"><g class="label" transform="translate(0, 0)"><text y="-10.1"><tspan class="text-outer-tspan" x="0" y="-0.1em" dy="1.1em"></tspan></text></g></g><g class="edgeLabel" transform="translate(1305.04296875, 328.625)"><g class="label" transform="translate(-15.34765625, -11.25)"><g><rect class="background" style="" x="-2" y="-1" width="30.6953125" height="22.5"></rect><text y="-10.1" style=""><tspan class="text-outer-tspan" x="0" y="-0.1em" dy="1.1em"><tspan font-style="normal" class="text-inner-tspan" font-weight="normal">não</tspan></tspan></text></g></g></g><g class="edgeLabel"><g class="label" transform="translate(0, 0)"><text y="-10.1"><tspan class="text-outer-tspan" x="0" y="-0.1em" dy="1.1em"></tspan></text></g></g><g class="edgeLabel" transform="translate(2164.2890625, 328.625)"><g class="label" transform="translate(-25.125, -11.25)"><g><rect class="background" style="" x="-2" y="-1" width="50.25" height="22.5"></rect><text y="-10.1" style=""><tspan class="text-outer-tspan" x="0" y="-0.1em" dy="1.1em"><tspan font-style="normal" class="text-inner-tspan" font-weight="normal">assina</tspan></tspan></text></g></g></g><g class="edgeLabel" transform="translate(1729.77734375, 312.974609375)"><g class="label" transform="translate(-99.38671875, -11.30078125)"><g><rect class="background" style="" x="-2" y="-1" width="198.7734375" height="22.6015625"></rect><text y="-10.1" style=""><tspan class="text-outer-tspan" x="0" y="-0.1em" dy="1.1em"><tspan font-style="normal" class="text-inner-tspan" font-weight="normal">devolve</tspan><tspan font-style="normal" class="text-inner-tspan" font-weight="normal"> com</tspan><tspan font-style="normal" class="text-inner-tspan" font-weight="normal"> orientação,</tspan><tspan font-style="normal" class="text-inner-tspan" font-weight="normal"> 1x</tspan></tspan></text></g></g></g><g class="edgeLabel" transform="translate(2544.09765625, 328.625)"><g class="label" transform="translate(-44.68359375, -11.25)"><g><rect class="background" style="" x="-2" y="-1" width="89.3671875" height="22.5"></rect><text y="-10.1" style=""><tspan class="text-outer-tspan" x="0" y="-0.1em" dy="1.1em"><tspan font-style="normal" class="text-inner-tspan" font-weight="normal">amostra</tspan><tspan font-style="normal" class="text-inner-tspan" font-weight="normal"> 5%</tspan></tspan></text></g></g></g></g><g class="nodes"><g class="node default  " id="flowchart-q-31" transform="translate(138, 150.375)"><rect class="basic label-container" style="" x="-130" y="-51" width="260" height="102"></rect><g class="label" style="" transform="translate(-100, -36)"><rect></rect><foreignObject width="200" height="72"><div xmlns="http://www.w3.org/1999/xhtml" style="display: table; white-space: break-spaces; line-height: 1.5; max-width: 200px; text-align: center; width: 200px;"><span class="nodeLabel "><p>Fila coletiva ADMITIDO — ordem: risco &gt; prioridade legal &gt; cronológica</p></span></div></foreignObject></g></g><g class="node default  " id="flowchart-claim-32" transform="translate(457, 237.375)"><polygon points="139,0 278,-139 139,-278 0,-139" class="label-container" transform="translate(-139,139)"></polygon><g class="label" style="" transform="translate(-100, -24)"><rect></rect><foreignObject width="200" height="48"><div xmlns="http://www.w3.org/1999/xhtml" style="display: table; white-space: break-spaces; line-height: 1.5; max-width: 200px; text-align: center; width: 200px;"><span class="nodeLabel "><p>revisor DISPONIVEL e WIP &lt; limite?</p></span></div></foreignObject></g></g><g class="node default  " id="flowchart-take-34" transform="translate(806.6953125, 307.375)"><rect class="basic label-container" style="" x="-130" y="-51" width="260" height="102"></rect><g class="label" style="" transform="translate(-100, -36)"><rect></rect><foreignObject width="200" height="72"><div xmlns="http://www.w3.org/1999/xhtml" style="display: table; white-space: break-spaces; line-height: 1.5; max-width: 200px; text-align: center; width: 200px;"><span class="nodeLabel "><p>Puxar próximo → DISTRIBUIDO → EM_INSTRUCAO</p></span></div></foreignObject></g></g><g class="node default  " id="flowchart-wait-36" transform="translate(806.6953125, 167.375)"><rect class="basic label-container" style="" x="-130" y="-39" width="260" height="78"></rect><g class="label" style="" transform="translate(-100, -24)"><rect></rect><foreignObject width="200" height="48"><div xmlns="http://www.w3.org/1999/xhtml" style="display: table; white-space: break-spaces; line-height: 1.5; max-width: 200px; text-align: center; width: 200px;"><span class="nodeLabel "><p>aguarda concluir minuta ou fim da ausência</p></span></div></foreignObject></g></g><g class="node default  " id="flowchart-imp-38" transform="translate(1125.6953125, 307.375)"><polygon points="139,0 278,-139 139,-278 0,-139" class="label-container" transform="translate(-139,139)"></polygon><g class="label" style="" transform="translate(-100, -24)"><rect></rect><foreignObject width="200" height="48"><div xmlns="http://www.w3.org/1999/xhtml" style="display: table; white-space: break-spaces; line-height: 1.5; max-width: 200px; text-align: center; width: 200px;"><span class="nodeLabel "><p>impedimento ou suspeição no caso?</p></span></div></foreignObject></g></g><g class="node default  " id="flowchart-back-40" transform="translate(1475.390625, 59)"><rect class="basic label-container" style="" x="-130" y="-51" width="260" height="102"></rect><g class="label" style="" transform="translate(-100, -36)"><rect></rect><foreignObject width="200" height="72"><div xmlns="http://www.w3.org/1999/xhtml" style="display: table; white-space: break-spaces; line-height: 1.5; max-width: 200px; text-align: center; width: 200px;"><span class="nodeLabel "><p>devolve à fila com motivo; nunca volta ao mesmo revisor</p></span></div></foreignObject></g></g><g class="node default  " id="flowchart-work-44" transform="translate(1475.390625, 328.625)"><rect class="basic label-container" style="" x="-130" y="-39" width="260" height="78"></rect><g class="label" style="" transform="translate(-100, -24)"><rect></rect><foreignObject width="200" height="48"><div xmlns="http://www.w3.org/1999/xhtml" style="display: table; white-space: break-spaces; line-height: 1.5; max-width: 200px; text-align: center; width: 200px;"><span class="nodeLabel "><p>instrução / diligência / minuta (UC-RAIT-003)</p></span></div></foreignObject></g></g><g class="node default  " id="flowchart-sig-46" transform="translate(1984.1640625, 328.625)"><rect class="basic label-container" style="" x="-130" y="-51" width="260" height="102"></rect><g class="label" style="" transform="translate(-100, -36)"><rect></rect><foreignObject width="200" height="72"><div xmlns="http://www.w3.org/1999/xhtml" style="display: table; white-space: break-spaces; line-height: 1.5; max-width: 200px; text-align: center; width: 200px;"><span class="nodeLabel "><p>F-DP-5: autoridade signatária da circunscrição, de plantão — T-ASS</p></span></div></foreignObject></g></g><g class="node default  " id="flowchart-done-48" transform="translate(2344.4140625, 328.625)"><rect class="basic label-container" style="" x="-130" y="-39" width="260" height="78"></rect><g class="label" style="" transform="translate(-100, -24)"><rect></rect><foreignObject width="200" height="48"><div xmlns="http://www.w3.org/1999/xhtml" style="display: table; white-space: break-spaces; line-height: 1.5; max-width: 200px; text-align: center; width: 200px;"><span class="nodeLabel "><p>DECIDIDO_AUTORIDADE → COMUNICADO</p></span></div></foreignObject></g></g><g class="node default  " id="flowchart-qa-52" transform="translate(2743.78125, 328.625)"><rect class="basic label-container" style="" x="-130" y="-39" width="260" height="78"></rect><g class="label" style="" transform="translate(-100, -24)"><rect></rect><foreignObject width="200" height="48"><div xmlns="http://www.w3.org/1999/xhtml" style="display: table; white-space: break-spaces; line-height: 1.5; max-width: 200px; text-align: center; width: 200px;"><span class="nodeLabel "><p>F-DP-Q: subcoordenador revisa</p></span></div></foreignObject></g></g></g></g></g></svg>